<svg xmlns="http://www.w3.org/2000/svg" width="398" height="73.794" viewBox="0 0 398 73.794">
  <g id="Group_2159" data-name="Group 2159" transform="translate(-1581 -1377)">
    <g id="Group_124" data-name="Group 124" transform="translate(1581 1377)">
      <path id="Path_99" data-name="Path 99" d="M356.74,59.654h14.379c.558,1.817,2.455,3.635,6.01,3.635,4.814,0,6.472-3,6.472-7.429V52.7h-.319A12.769,12.769,0,0,1,373.1,57.518c-9.166,0-17.153-6.791-17.153-20.071,0-12.164,6.552-21.649,16.436-21.649,5.691,0,9.167,2.3,11.462,5.93h.239V17.058H398.3V53.883c0,6.791-2.375,12.084-5.93,15.256-3.715,3.316-9.007,4.655-15.017,4.655-11.3,0-19.194-4.671-20.613-14.14M384.223,36.73c0-5.293-2.535-9.565-6.871-9.565-4.193,0-6.871,3.794-6.871,9.565,0,5.691,2.694,9.8,6.871,9.8,4.352,0,6.871-4.193,6.871-9.8m-44.158-12.4h.239c3.077-5.93,7.11-8.146,12.243-8.146a5.758,5.758,0,0,1,2.455.4V29.62h-.319c-8.768-1.578-13.9,2.614-13.9,12.163V59.558H325.845V17.074h14.22ZM.3,0H29.537c5.532,0,9.788,1.339,12.8,3.794a14.634,14.634,0,0,1,5.213,11.765c0,5.691-2.3,9.246-7.03,11.462v.239c6.169,2.056,9.708,7.588,9.708,14.3,0,6.393-2.455,11.382-6.472,14.379-3.4,2.455-7.827,3.635-13.662,3.635H.3ZM28.118,46.374c3.555,0,6.153-2.136,6.153-6.074,0-4.113-2.838-6.09-6.233-6.09H16.5V46.374Zm-1.5-23.068c3.156,0,5.452-1.738,5.452-5.213,0-3.4-2.375-5.054-5.532-5.054H16.513V23.307Z" transform="translate(-0.3)" fill="#002b40"/>
    </g>
    <path id="Path_100" data-name="Path 100" d="M330.4,0h15.363V59.74H330.4Zm18.3,38.51c0-13.46,8.713-22.572,22.188-22.572s22.029,9.112,22.029,22.572c0,13.556-8.552,22.572-22.029,22.572-13.46,0-22.188-9.032-22.188-22.572m29,0c0-7.45-2.382-12.117-6.97-12.117s-6.81,4.668-6.81,12.117c0,7.529,2.222,12.2,6.81,12.2s6.97-4.684,6.97-12.2m16.961,0c0-13.46,8.712-22.572,22.189-22.572s22.029,9.112,22.029,22.572c0,13.556-8.552,22.572-22.029,22.572s-22.189-9.032-22.189-22.572m29,0c0-7.45-2.382-12.117-6.97-12.117s-6.81,4.668-6.81,12.117c0,7.529,2.222,12.2,6.81,12.2s6.97-4.684,6.97-12.2m18.144-21.389h14.26v6.41h.24c2.845-4.988,6.73-7.689,12.837-7.689a11.9,11.9,0,0,1,11.494,7.37h.24c3.485-5.627,8.009-7.37,13.236-7.37,9.9,0,14.18,7.29,14.18,17.121V59.74H493.314V35.649c0-4.364-1.343-7.21-5.147-7.21-3.725,0-5.627,3.485-5.627,8.089V59.74H467.56V35.649c0-4.364-1.343-7.21-5.148-7.21-3.725,0-5.627,3.485-5.627,8.089V59.74H441.807ZM526.6,54.193h-.16V59.74h-14.26V0h14.979V21.549h.24c2.846-3.725,6.65-5.707,12.118-5.707,10.695,0,16.881,9.672,16.881,22.508,0,14.5-6.73,22.812-17.824,22.812a13.451,13.451,0,0,1-11.974-6.97m14.563-16c0-6.89-2.526-11.334-7.05-11.334-4.588,0-7.53,4.444-7.53,11.334,0,6.81,2.926,11.334,7.53,11.334,4.6-.016,7.05-4.444,7.05-11.334m17.121.16c0-13.316,8.792-22.572,21.549-22.572,6.346,0,11.254,1.982,14.979,5.547,4.908,4.748,7.13,12.2,6.97,20.99h-28.6c.639,5.307,3.165,7.993,7.689,7.993a5.745,5.745,0,0,0,5.867-4.044h14.42c-2.526,9.752-10.056,14.659-20.75,14.659-13.252,0-22.125-8.952-22.125-22.572m14.9-4.444H586.8c-.24-5.148-3.085-7.849-6.666-7.849-4.109.016-6.395,2.941-6.954,7.849" transform="translate(1303.37 1377)" fill="#002b40"/>
  </g>
</svg>
