<svg xmlns="http://www.w3.org/2000/svg" width="73.035" height="73.034"><path d="m28.508 46.375-1.861 1.861v2.382l1.86 1.86h2.382l1.862-1.86v-2.382l-1.862-1.86h-2.381" fill="#beb4b9" opacity=".6"/><path d="m15.78 46.375-1.861 1.861v2.382l1.86 1.86h2.382l1.862-1.86v-2.382l-1.862-1.86H15.78m6.364-6.365-1.861 1.861v2.382l1.86 1.86h2.382l1.862-1.86v-2.382l-1.862-1.86h-2.381" fill="#beb4b9"/><path d="m9.416 40.011-1.861 1.861v2.382l1.86 1.86h2.382l1.862-1.86v-2.382l-1.862-1.86H9.416m6.364-6.364-1.861 1.861v2.382l1.86 1.86h2.382l1.862-1.86v-2.382l-1.862-1.86H15.78m-12.728-.001L1.19 35.51v2.382l1.86 1.86h2.382l1.862-1.86V35.51l-1.862-1.86h-2.38m6.364-6.366-1.861 1.861v2.382l1.86 1.86h2.382l1.862-1.86v-2.382l-1.862-1.86H9.416M61.054 39.83l-1.861 1.86v2.382l1.86 1.86h2.382l1.862-1.86V41.69l-1.862-1.86h-2.381m6.546-6.548-1.86 1.861v2.382l1.86 1.86h2.382l1.862-1.86v-2.382l-1.862-1.86h-2.381m-12.911.182-1.86 1.861v2.382l1.86 1.86h2.382l1.862-1.86v-2.382l-1.862-1.86h-2.381m6.546-6.548-1.861 1.861v2.382l1.86 1.86h2.382l1.862-1.86v-2.382l-1.862-1.86h-2.381" fill="#647dff"/><path d="m35.416 40.011-1.861 1.861v2.382l1.86 1.86h2.382l1.862-1.86v-2.382l-1.862-1.86h-2.381" fill="#beb4b9" opacity=".6"/><path d="m41.78 33.648-1.861 1.861v2.382l1.86 1.86h2.382l1.862-1.86v-2.382l-1.862-1.86H41.78" fill="#beb4b9"/><path d="m48.326 27.101-1.861 1.861v2.382l1.86 1.86h2.382l1.862-1.86v-2.382l-1.862-1.86h-2.381m6.547-6.548-1.861 1.861v2.382l1.86 1.86h2.382l1.862-1.86v-2.382l-1.862-1.86h-2.381" fill="#647dff"/><path d="M29.052 33.648 27.19 35.51v2.382l1.86 1.86h2.382l1.862-1.86V35.51l-1.862-1.86h-2.381m6.365-6.366-1.861 1.861v2.382l1.86 1.86h2.382l1.862-1.86v-2.382l-1.862-1.86h-2.381" fill="#beb4b9"/><path d="m41.963 20.737-1.861 1.861v2.382l1.86 1.86h2.382l1.862-1.86v-2.382l-1.862-1.86h-2.381m6.546-6.548-1.861 1.861v2.382l1.86 1.86h2.382l1.862-1.86V16.05l-1.862-1.86h-2.38" fill="#647dff"/><path d="m52.74 50.89 1.86 1.861h2.382l1.86-1.86v-2.382l-1.86-1.862H54.6l-1.86 1.862v2.381m-6.364-6.364 1.861 1.861h2.382l1.86-1.86v-2.382l-1.86-1.862h-2.382l-1.86 1.862v2.381" fill="#beb4b9"/><path d="m46.376 57.254 1.861 1.861h2.382l1.86-1.86v-2.382l-1.86-1.862h-2.382l-1.86 1.862v2.381m-6.365-6.364 1.861 1.861h2.382l1.86-1.86v-2.382l-1.86-1.862h-2.382l-1.86 1.862v2.381" fill="#beb4b9" opacity=".6"/><path d="m40.012 63.618 1.861 1.861h2.382l1.86-1.86v-2.382l-1.86-1.862h-2.382l-1.86 1.862v2.381m-6.365-6.364 1.861 1.861h2.382l1.86-1.86v-2.382l-1.86-1.862h-2.382l-1.86 1.862v2.381" fill="#beb4b9" opacity=".4"/><path d="m33.648 69.982 1.861 1.861h2.382l1.86-1.86V67.6l-1.86-1.862h-2.382l-1.86 1.862v2.381" fill="#beb4b9" opacity=".2"/><path d="m27.284 63.618 1.861 1.861h2.382l1.86-1.86v-2.382l-1.86-1.862h-2.382l-1.86 1.862v2.381" fill="#beb4b9" opacity=".4"/><path d="m20.737 57.071 1.861 1.861h2.382l1.86-1.86V54.69l-1.86-1.862h-2.382l-1.86 1.862v2.381" fill="#beb4b9" opacity=".6"/><path d="m39.83 11.98 1.86 1.861h2.382l1.86-1.86V9.598l-1.86-1.862H41.69L39.83 9.6v2.381m-6.548-6.548 1.861 1.861h2.382l1.86-1.86V3.051l-1.86-1.862h-2.382l-1.86 1.862v2.381m.182 12.911 1.861 1.861h2.382l1.86-1.86v-2.382l-1.86-1.862h-2.382l-1.86 1.862v2.381m-6.546-6.546 1.86 1.861h2.382l1.86-1.86V9.415l-1.86-1.862H28.78l-1.86 1.862v2.381m.181 12.911 1.861 1.861h2.382l1.86-1.86v-2.382l-1.86-1.862h-2.382l-1.86 1.862v2.381m-6.548-6.546 1.861 1.861h2.382l1.86-1.86V15.78l-1.86-1.862h-2.382l-1.86 1.862v2.381m.182 12.91 1.861 1.861h2.382l1.86-1.86V28.69l-1.86-1.862h-2.382l-1.86 1.862v2.381m-6.547-6.546 1.861 1.861h2.382l1.86-1.86v-2.382l-1.86-1.862h-2.382l-1.86 1.862v2.381" fill="#647dff"/></svg>