<svg xmlns="http://www.w3.org/2000/svg" viewBox="0 0 398 74.514"><path d="M0 0v4.536h69.978v13.956a9.774 9.774 0 0 1-2.266 6.257l-41.47 49.765H61.23l43.737-52.484V0zm363.012.003v18.489a9.781 9.781 0 0 1-2.267 6.258l-34.276 41.133a6.517 6.517 0 0 1-10.013 0L282.179 24.75a9.772 9.772 0 0 1-2.266-6.259V.003h-34.99v18.489a9.773 9.773 0 0 1-2.266 6.259l-34.276 41.132a6.517 6.517 0 0 1-10.013 0l-34.277-41.132a9.772 9.772 0 0 1-2.266-6.259V.003h-34.99V22.03l43.736 52.484h65.6l26.247-31.491 26.242 31.491h65.6l43.736-52.484V.003z" fill="#647dff"/></svg>