<svg xmlns="http://www.w3.org/2000/svg" width="73.035" height="73.034"><path d="m28.507 26.658-1.86-1.861v-2.382l1.86-1.86h2.382l1.861 1.86v2.382l-1.861 1.861h-2.382" fill="#beb4b9"/><path d="m15.78 26.658-1.862-1.861v-2.382l1.861-1.86h2.382l1.861 1.86v2.382l-1.861 1.861h-2.382" fill="#beb4b9" opacity=".6"/><path d="m22.144 33.022-1.86-1.861v-2.382l1.86-1.86h2.382l1.861 1.86v2.382l-1.861 1.861h-2.382" fill="#beb4b9"/><path d="m9.416 33.022-1.86-1.861v-2.382l1.86-1.86h2.382l1.861 1.86v2.382l-1.861 1.861H9.416" fill="#beb4b9" opacity=".6"/><path d="m15.78 39.386-1.862-1.861v-2.382l1.861-1.86h2.382l1.861 1.86v2.382l-1.861 1.861h-2.382" fill="#beb4b9"/><path d="m3.051 39.386-1.86-1.861v-2.382l1.86-1.86h2.382l1.861 1.86v2.382l-1.861 1.861H3.051m6.365 6.364-1.86-1.861v-2.382l1.86-1.86h2.382l1.861 1.86v2.382l-1.861 1.861H9.416" fill="#beb4b9" opacity=".6"/><path d="m61.054 33.205-1.86-1.861v-2.382l1.86-1.86h2.382l1.861 1.86v2.382l-1.861 1.861h-2.382m6.547 6.546-1.86-1.861v-2.382l1.86-1.86h2.382l1.861 1.86v2.382l-1.861 1.861h-2.382" fill="#beb4b9" opacity=".4"/><path d="m54.69 39.568-1.86-1.861v-2.382l1.86-1.86h2.382l1.861 1.86v2.382l-1.861 1.861H54.69" fill="#beb4b9"/><path d="m61.236 46.115-1.86-1.861v-2.382l1.86-1.86h2.382l1.861 1.86v2.382l-1.861 1.861h-2.382" fill="#beb4b9" opacity=".4"/><path d="m35.416 33.022-1.86-1.861v-2.382l1.86-1.86h2.382l1.861 1.86v2.382l-1.861 1.861h-2.382m6.364 6.364-1.862-1.861v-2.382l1.861-1.86h2.382l1.861 1.86v2.382l-1.861 1.861h-2.382" fill="#647dff"/><path d="m48.326 45.933-1.86-1.861V41.69l1.86-1.86h2.382l1.861 1.86v2.382l-1.861 1.861h-2.382" fill="#beb4b9"/><path d="m54.873 52.48-1.86-1.862v-2.382l1.86-1.86h2.382l1.861 1.86v2.382l-1.861 1.861h-2.382" fill="#beb4b9" opacity=".4"/><path d="m29.051 39.386-1.86-1.861v-2.382l1.86-1.86h2.382l1.861 1.86v2.382l-1.861 1.861h-2.382m6.365 6.364-1.86-1.861v-2.382l1.86-1.86h2.382l1.861 1.86v2.382l-1.861 1.861h-2.382" fill="#647dff"/><path d="m41.962 52.297-1.86-1.861v-2.382l1.86-1.86h2.382l1.861 1.86v2.382l-1.861 1.861h-2.382" fill="#beb4b9"/><path d="m48.51 58.843-1.862-1.861V54.6l1.861-1.86h2.382l1.861 1.86v2.382l-1.861 1.861h-2.382" fill="#beb4b9" opacity=".4"/><path d="m52.74 22.143 1.861-1.86h2.382l1.86 1.86v2.382l-1.86 1.861H54.6l-1.861-1.861v-2.382" fill="#beb4b9" opacity=".2"/><path d="m46.376 28.507 1.861-1.86h2.382l1.86 1.86v2.382l-1.86 1.861h-2.382l-1.861-1.861v-2.382" fill="#beb4b9" opacity=".6"/><path d="m46.376 15.78 1.861-1.862h2.382l1.86 1.861v2.382l-1.86 1.861h-2.382l-1.861-1.861v-2.382" fill="#beb4b9" opacity=".2"/><path d="m40.012 22.143 1.861-1.86h2.382l1.86 1.86v2.382l-1.86 1.861h-2.382l-1.861-1.861v-2.382" fill="#beb4b9" opacity=".6"/><path d="m40.012 9.415 1.861-1.86h2.382l1.86 1.86v2.382l-1.86 1.861h-2.382l-1.861-1.861V9.415" fill="#beb4b9" opacity=".2"/><path d="m33.648 15.78 1.861-1.862h2.382l1.86 1.861v2.382l-1.86 1.861h-2.382l-1.861-1.861v-2.382" fill="#beb4b9" opacity=".6"/><path d="m33.648 3.051 1.861-1.86h2.382l1.86 1.86v2.382l-1.86 1.861h-2.382l-1.861-1.861V3.051" fill="#beb4b9" opacity=".2"/><path d="m27.284 9.415 1.861-1.86h2.382l1.86 1.86v2.382l-1.86 1.861h-2.382l-1.861-1.861V9.415m-6.547 6.547 1.861-1.86h2.382l1.86 1.86v2.382l-1.86 1.861h-2.382l-1.861-1.861v-2.382" fill="#beb4b9" opacity=".6"/><path d="m39.829 61.054 1.861-1.86h2.382l1.86 1.86v2.382l-1.86 1.861H41.69l-1.861-1.861v-2.382M33.283 67.6l1.861-1.86h2.382l1.86 1.86v2.382l-1.86 1.861h-2.382l-1.861-1.861V67.6" fill="#beb4b9" opacity=".4"/><path d="m33.465 54.69 1.861-1.86h2.382l1.86 1.86v2.382l-1.86 1.861h-2.382l-1.861-1.861V54.69" fill="#beb4b9"/><path d="m26.919 61.236 1.861-1.86h2.382l1.86 1.86v2.382l-1.86 1.861H28.78l-1.861-1.861v-2.382" fill="#beb4b9" opacity=".4"/><path d="m27.1 48.326 1.862-1.86h2.382l1.86 1.86v2.382l-1.86 1.861h-2.382l-1.861-1.861v-2.382" fill="#beb4b9"/><path d="m20.555 54.872 1.861-1.86h2.382l1.86 1.86v2.382l-1.86 1.861h-2.382l-1.861-1.861v-2.382" fill="#beb4b9" opacity=".4"/><path d="m20.737 41.962 1.861-1.86h2.382l1.86 1.86v2.382l-1.86 1.861h-2.382l-1.861-1.861v-2.382" fill="#beb4b9"/><path d="m14.19 48.51 1.862-1.862h2.382l1.86 1.861v2.382l-1.86 1.861h-2.382l-1.861-1.861v-2.382" fill="#beb4b9" opacity=".6"/></svg>