<svg xmlns="http://www.w3.org/2000/svg" width="73.034" height="73.034"><path d="m28.508 26.659-1.86-1.862v-2.381l1.86-1.861h2.382l1.86 1.86v2.382l-1.86 1.862h-2.382" fill="#beb4b9" opacity=".6"/><path d="m15.78 26.659-1.86-1.862v-2.381l1.86-1.861h2.382l1.86 1.86v2.382l-1.86 1.862H15.78m6.364 6.364-1.86-1.862V28.78l1.86-1.861h2.382l1.86 1.86v2.382l-1.86 1.862h-2.382" fill="#beb4b9"/><path d="m9.416 33.023-1.86-1.862V28.78l1.86-1.861h2.382l1.86 1.86v2.382l-1.86 1.862H9.416m6.364 6.364-1.86-1.862v-2.381l1.86-1.861h2.382l1.86 1.86v2.382l-1.86 1.862H15.78m-12.728 0-1.86-1.862v-2.381l1.86-1.861h2.382l1.86 1.86v2.382l-1.86 1.862H3.052m6.364 6.363-1.86-1.86v-2.382l1.86-1.861h2.382l1.86 1.86v2.382l-1.86 1.862H9.416m51.638-12.545-1.86-1.862v-2.381l1.86-1.861h2.382l1.86 1.86v2.382l-1.86 1.862h-2.382m6.547 6.546-1.86-1.862v-2.38l1.86-1.861h2.382l1.86 1.86v2.382l-1.86 1.862H67.6m-12.91-.184-1.86-1.862v-2.381l1.86-1.861h2.382l1.86 1.86v2.382l-1.86 1.862H54.69m6.547 6.547-1.86-1.862v-2.381l1.86-1.861h2.382l1.86 1.86v2.382l-1.86 1.862h-2.382" fill="#647dff"/><path d="m35.416 33.023-1.86-1.862V28.78l1.86-1.861h2.382l1.86 1.86v2.382l-1.86 1.862h-2.382" fill="#beb4b9" opacity=".6"/><path d="m41.78 39.387-1.86-1.862v-2.381l1.86-1.861h2.382l1.86 1.86v2.382l-1.86 1.862H41.78" fill="#beb4b9"/><path d="m48.326 45.933-1.86-1.862V41.69l1.86-1.861h2.382l1.86 1.86v2.382l-1.86 1.862h-2.382m6.547 6.547-1.86-1.862v-2.381l1.86-1.861h2.382l1.86 1.86v2.382l-1.86 1.862h-2.382" fill="#647dff"/><path d="m29.052 39.387-1.86-1.862v-2.381l1.86-1.861h2.382l1.86 1.86v2.382l-1.86 1.862h-2.382m6.364 6.363-1.86-1.86v-2.382l1.86-1.861h2.382l1.86 1.86v2.382l-1.86 1.862h-2.382" fill="#beb4b9"/><path d="m41.962 52.297-1.86-1.862v-2.381l1.86-1.861h2.382l1.86 1.86v2.382l-1.86 1.862h-2.382m6.548 6.547-1.862-1.862v-2.381l1.861-1.861h2.382l1.86 1.86v2.382l-1.86 1.862h-2.382" fill="#647dff"/><path d="m52.74 22.144 1.86-1.86h2.382l1.861 1.86v2.382l-1.86 1.86H54.6l-1.862-1.86v-2.382m-6.363 6.364 1.862-1.86h2.381l1.861 1.86v2.382l-1.86 1.86h-2.382l-1.862-1.86v-2.382" fill="#beb4b9"/><path d="m46.375 15.78 1.862-1.86h2.381l1.861 1.86v2.382l-1.86 1.86h-2.382l-1.862-1.86V15.78m-6.363 6.364 1.862-1.86h2.381l1.861 1.86v2.382l-1.86 1.86h-2.382l-1.862-1.86v-2.382" fill="#beb4b9" opacity=".6"/><path d="m40.012 9.416 1.862-1.86h2.381l1.861 1.86v2.382l-1.86 1.86h-2.382l-1.862-1.86V9.416m-6.365 6.364 1.862-1.86h2.381l1.861 1.86v2.382l-1.86 1.86h-2.382l-1.862-1.86V15.78" fill="#beb4b9" opacity=".4"/><path d="m33.647 3.052 1.862-1.86h2.381l1.861 1.86v2.382l-1.86 1.86h-2.382l-1.862-1.86V3.052" fill="#beb4b9" opacity=".2"/><path d="m27.284 9.416 1.862-1.86h2.381l1.861 1.86v2.382l-1.86 1.86h-2.382l-1.862-1.86V9.416" fill="#beb4b9" opacity=".4"/><path d="m20.737 15.962 1.862-1.86h2.381l1.861 1.86v2.382l-1.86 1.86h-2.382l-1.862-1.86v-2.382" fill="#beb4b9" opacity=".6"/><path d="m39.83 61.054 1.86-1.86h2.382l1.861 1.86v2.382l-1.86 1.86H41.69l-1.862-1.86v-2.382m-6.546 6.547 1.862-1.86h2.381l1.861 1.86v2.382l-1.86 1.86h-2.382l-1.862-1.86V67.6m.183-12.91 1.862-1.86h2.381l1.861 1.86v2.382l-1.86 1.86h-2.382l-1.862-1.86V54.69m-6.547 6.547 1.862-1.86h2.381l1.861 1.86v2.382l-1.86 1.86H28.78l-1.862-1.86v-2.382m.183-12.911 1.862-1.86h2.381l1.861 1.86v2.382l-1.86 1.86h-2.382l-1.862-1.86v-2.382m-6.547 6.547 1.862-1.86h2.381l1.861 1.86v2.382l-1.86 1.86h-2.382l-1.862-1.86v-2.382m.183-12.911 1.862-1.86h2.381l1.861 1.86v2.382l-1.86 1.86h-2.382l-1.862-1.86v-2.382M14.19 48.51l1.862-1.862h2.381l1.861 1.861v2.382l-1.86 1.86h-2.382l-1.862-1.86v-2.382" fill="#647dff"/></svg>