<svg xmlns="http://www.w3.org/2000/svg" width="73.035" height="73.034"><path d="m28.507 26.658-1.86-1.861v-2.382l1.86-1.86h2.382l1.861 1.86v2.382l-1.861 1.861h-2.382" fill="#beb4b9"/><path d="m15.78 26.658-1.862-1.861v-2.382l1.861-1.86h2.382l1.861 1.86v2.382l-1.861 1.861h-2.382m6.364 6.364-1.86-1.861v-2.382l1.86-1.86h2.382l1.861 1.86v2.382l-1.861 1.861h-2.382" fill="#beb4b9" opacity=".6"/><path d="m9.415 33.022-1.86-1.861v-2.382l1.86-1.86h2.382l1.861 1.86v2.382l-1.861 1.861H9.415m6.365 6.364-1.862-1.861v-2.382l1.861-1.86h2.382l1.861 1.86v2.382l-1.861 1.861h-2.382" fill="#beb4b9" opacity=".4"/><path d="m3.051 39.386-1.86-1.861v-2.382l1.86-1.86h2.382l1.861 1.86v2.382l-1.861 1.861H3.051" fill="#beb4b9" opacity=".2"/><path d="m9.415 45.75-1.86-1.861v-2.382l1.86-1.86h2.382l1.861 1.86v2.382l-1.861 1.861H9.415" fill="#beb4b9" opacity=".4"/><path d="m61.054 33.205-1.86-1.861v-2.382l1.86-1.86h2.382l1.861 1.86v2.382l-1.861 1.861h-2.382m6.547 6.546-1.86-1.861v-2.382l1.86-1.86h2.382l1.861 1.86v2.382l-1.861 1.861h-2.382m-12.911-.183-1.86-1.861v-2.382l1.86-1.86h2.382l1.861 1.86v2.382l-1.861 1.861H54.69m6.546 6.547-1.86-1.861v-2.382l1.86-1.86h2.382l1.861 1.86v2.382l-1.861 1.861h-2.382" fill="#647dff"/><path d="m35.416 33.022-1.86-1.861v-2.382l1.86-1.86h2.382l1.861 1.86v2.382l-1.861 1.861h-2.382m6.364 6.364-1.862-1.861v-2.382l1.861-1.86h2.382l1.861 1.86v2.382l-1.861 1.861h-2.382" fill="#beb4b9"/><path d="m48.326 45.933-1.86-1.861V41.69l1.86-1.86h2.382l1.861 1.86v2.382l-1.861 1.861h-2.382m6.547 6.547-1.86-1.862v-2.382l1.86-1.86h2.382l1.861 1.86v2.382l-1.861 1.861h-2.382M29.051 39.386l-1.86-1.861v-2.382l1.86-1.86h2.382l1.861 1.86v2.382l-1.861 1.861h-2.382m6.365 6.364-1.86-1.861v-2.382l1.86-1.86h2.382l1.861 1.86v2.382l-1.861 1.861h-2.382m6.546 6.547-1.86-1.861v-2.382l1.86-1.86h2.382l1.861 1.86v2.382l-1.861 1.861h-2.382m6.546 6.546-1.86-1.861V54.6l1.86-1.86h2.382l1.861 1.86v2.382l-1.861 1.861h-2.382" fill="#647dff"/><path d="m52.74 22.143 1.861-1.86h2.382l1.86 1.86v2.382l-1.86 1.861H54.6l-1.861-1.861v-2.382m-6.363 6.364 1.861-1.86h2.382l1.86 1.86v2.382l-1.86 1.861h-2.382l-1.861-1.861v-2.382m0-12.727 1.861-1.862h2.382l1.86 1.861v2.382l-1.86 1.861h-2.382l-1.861-1.861v-2.382m-6.364 6.364 1.861-1.86h2.382l1.86 1.86v2.382l-1.86 1.861h-2.382l-1.861-1.861v-2.382m0-12.728 1.861-1.86h2.382l1.86 1.86v2.382l-1.86 1.861h-2.382l-1.861-1.861V9.415m-6.364 6.365 1.861-1.862h2.382l1.86 1.861v2.382l-1.86 1.861h-2.382l-1.861-1.861v-2.382m0-12.728 1.861-1.86h2.382l1.86 1.86v2.382l-1.86 1.861h-2.382l-1.861-1.861V3.051m-6.364 6.364 1.861-1.86h2.382l1.86 1.86v2.382l-1.86 1.861h-2.382l-1.861-1.861V9.415" fill="#beb4b9"/><path d="m20.737 15.962 1.861-1.86h2.382l1.86 1.86v2.382l-1.86 1.861h-2.382l-1.861-1.861v-2.382" fill="#beb4b9" opacity=".6"/><path d="m39.829 61.054 1.861-1.86h2.382l1.86 1.86v2.382l-1.86 1.861H41.69l-1.861-1.861v-2.382M33.283 67.6l1.861-1.86h2.382l1.86 1.86v2.382l-1.86 1.861h-2.382l-1.861-1.861V67.6m.182-12.91 1.861-1.86h2.382l1.86 1.86v2.382l-1.86 1.861h-2.382l-1.861-1.861V54.69m-6.546 6.546 1.861-1.86h2.382l1.86 1.86v2.382l-1.86 1.861H28.78l-1.861-1.861v-2.382m.181-12.91 1.862-1.86h2.382l1.86 1.86v2.382l-1.86 1.861h-2.382l-1.861-1.861v-2.382m-6.546 6.546 1.861-1.86h2.382l1.86 1.86v2.382l-1.86 1.861h-2.382l-1.861-1.861v-2.382m.182-12.91 1.861-1.86h2.382l1.86 1.86v2.382l-1.86 1.861h-2.382l-1.861-1.861v-2.382M14.19 48.51l1.861-1.862h2.382l1.86 1.861v2.382l-1.86 1.861H16.05l-1.861-1.861v-2.382" fill="#647dff"/></svg>