<svg xmlns="http://www.w3.org/2000/svg" width="399.349" height="115.975" viewBox="0 0 399.349 115.975">
  <g id="Group_2224" data-name="Group 2224" transform="translate(-6686.453 -6663.756)">
    <path id="Path_998" data-name="Path 998" d="M275.706,201.241h2.115l1.717-19.292h-2.689l.2-2.12h7.664c5.107,0,7.526,2.218,7.526,6.285,0,3.7-1.963,7.7-8.831,7.7a12.549,12.549,0,0,1-2.218-.167l-.672,7.595h2.689l-.2,2.12H275.5Zm5.677-9.646a10.066,10.066,0,0,0,1.717.1c3.9,0,6.452-1.649,6.452-5.48a3.893,3.893,0,0,0-1.31-3.263c-.873-.706-2.051-.981-4.1-.981h-1.913Z" transform="translate(6532.81 6559.202)" fill="#142f4e"/>
    <path id="Path_999" data-name="Path 999" d="M320.882,191.75c4.877,0,6.491,4.1,6.491,7.767,0,5.682-2.826,10.254-8.037,10.254-4.872,0-6.486-4.1-6.486-7.732C312.85,196.49,315.671,191.75,320.882,191.75Zm-1.344,15.735c2.453,0,5.147-1.85,5.147-8.105,0-3.66-1.752-5.343-4-5.343-2.453,0-5.142,1.85-5.142,8.1C315.539,205.8,317.285,207.485,319.537,207.485Z" transform="translate(6513.785 6553.13)" fill="#142f4e"/>
    <path id="Path_1000" data-name="Path 1000" d="M351.021,177.22H347.93l.2-2.12h5.721l-2.085,23.732h2.576l-.206,2.12h-5.191Z" transform="translate(6495.917 6561.612)" fill="#142f4e"/>
    <path id="Path_1001" data-name="Path 1001" d="M369.529,185.447H366.84l.2-2.115h5.274l-1.379,15.21h2.551l-.2,2.12H368.15Zm3.9-8.974a1.918,1.918,0,1,1-1.918-1.913,1.938,1.938,0,0,1,1.918,1.913Z" transform="translate(6486.284 6561.887)" fill="#142f4e"/>
    <path id="Path_1002" data-name="Path 1002" d="M395.634,194.055a5.888,5.888,0,0,0-1.58-.2c-3.964,0-5.716,3.464-5.716,7.968,0,4.067,1.918,5.647,4.372,5.647a10.465,10.465,0,0,0,4.47-1.281l-.236,2.389a9.989,9.989,0,0,1-4.808,1.178c-4.872,0-6.486-4.1-6.486-7.732,0-5.682,2.826-10.3,8.508-10.3a12.433,12.433,0,0,1,3.861.608l-.334,4.367H395.5Z" transform="translate(6476.703 6553.146)" fill="#142f4e"/>
    <path id="Path_1003" data-name="Path 1003" d="M411.451,216.236a6.378,6.378,0,0,0,1.963.27c1.511,0,2.89-.638,4.573-4.131l1.006-2.12-4.47-15.7h-2.551l.2-2.115h4.705l3.194,12.6a8.7,8.7,0,0,1,.4,2.453h.069c.3-.981.535-1.85.839-2.689l4.033-10.254h-2.9l.2-2.115h5.343l-.2,2.115L425,201.58c-5.682,14.086-7.095,17.045-11.7,17.045a8.788,8.788,0,0,1-2.051-.27Z" transform="translate(6463.663 6552.779)" fill="#142f4e"/>
    <path id="Path_1004" data-name="Path 1004" d="M482.392,178.87c6.82,0,9.445,5.044,9.445,10.725,0,8.37-4.705,13.738-11.432,13.738S471,198.3,471,192.618C471,184.247,475.7,178.87,482.392,178.87Zm-.236,2.286c-4.877,0-8.272,4.067-8.272,11.5,0,6.054,3.027,8.4,6.756,8.4,4.906,0,8.306-4.067,8.306-11.53C488.947,183.511,485.92,181.156,482.157,181.156Z" transform="translate(6433.229 6559.691)" fill="#142f4e"/>
    <path id="Path_1005" data-name="Path 1005" d="M519.937,175.1h5.716c-.707,6.422-.707,11.432-1.747,16.5h.069c1.408-5.24,3.925-8.341,7.291-8.341,3.16,0,4.136,3.027,4.136,6.422s-1.648,11.6-9.111,11.6a12.619,12.619,0,0,1-5.544-1.178c.569-3.6,1.178-12.541,2.115-22.893H519.77Zm10.892,10.455c-3.091,0-6.687,5.917-7.291,13.11a7.85,7.85,0,0,0,2.855.491c4.2,0,6.319-4.705,6.319-9.616C532.713,186.968,532.149,185.555,530.829,185.555Z" transform="translate(6408.387 6561.611)" fill="#142f4e"/>
    <path id="Path_1006" data-name="Path 1006" d="M558.014,204.325H560.2l-.137,2.654a9.9,9.9,0,0,0,3.631.672c2.453,0,3.768-1.413,3.768-3.062,0-3.493-8.944-2.551-8.944-7.664,0-3.022,2.051-5.176,6.378-5.176a16.422,16.422,0,0,1,5.215.908l-.339,4.372h-2.183l.133-2.654a8.71,8.71,0,0,0-2.944-.491c-2.86,0-3.7,1.472-3.7,2.586,0,1.55,1.31,2.12,3.194,2.826l1.963.741c2.218.839,3.8,1.712,3.8,4.2,0,3.631-2.488,5.549-6.555,5.549a15.411,15.411,0,0,1-5.78-1.079Z" transform="translate(6389.066 6553.13)" fill="#142f4e"/>
    <path id="Path_1007" data-name="Path 1007" d="M601.178,208.486a10.828,10.828,0,0,1-5.245,1.281c-4.268,0-6.417-2.188-6.417-7.8a11.437,11.437,0,0,1,2.453-7.394,7.36,7.36,0,0,1,6.05-2.826c3.326,0,4.774,1.963,4.774,3.925,0,4.136-4.74,6.354-10.588,7.026,0,3.528,1.747,4.774,4.416,4.774a9.533,9.533,0,0,0,4.877-1.546Zm-3.631-14.621c-3.194,0-4.975,3.194-5.343,6.957,4.808-.6,7.9-1.963,7.9-4.975,0-.942-.775-1.982-2.556-1.982Z" transform="translate(6372.863 6553.135)" fill="#142f4e"/>
    <path id="Path_1008" data-name="Path 1008" d="M621.851,192.088h5.044c-.132,1.472-.3,4.1-.8,7.5l.064.064c.981-4.74,2.522-7.9,6.084-7.9a6.953,6.953,0,0,1,1.648.172l-.4,2.453a5.835,5.835,0,0,0-1.143-.137c-3.4,0-5.578,3.832-6.825,15.21H622.96c.706-5.245,1.011-10.553,1.379-15.21H621.65Z" transform="translate(6356.492 6553.131)" fill="#142f4e"/>
    <path id="Path_1009" data-name="Path 1009" d="M649,192.44h5.4c-.137,2.62-.407,6.589-.407,8.876,0,5.274.574,6.52,2.085,6.52,2.723,0,5.4-4.416,6.05-13.281h-2.689l.2-2.115h5.176c-.7,9.715-3.16,17.663-9.243,17.663-3.194,0-4.337-2.389-4.268-8.807.034-1.884.1-4.038.2-6.761H648.81Z" transform="translate(6342.658 6552.779)" fill="#142f4e"/>
    <path id="Path_1010" data-name="Path 1010" d="M702.275,207.333l-.2,2.12H697.03a55.5,55.5,0,0,1,1.276-8.674l-.064-.064c-.878,3.194-2.792,9.077-7.026,9.077-2.86,0-4.416-2.591-4.416-6.29,0-4.538,1.648-7.9,3.091-9.322a8.38,8.38,0,0,1,6.378-2.389,8.487,8.487,0,0,1,3.7.81h1.143c-.491,2.384-1.074,9.916-1.379,14.753Zm-10.76-.029c3.567,0,6.221-7.767,6.756-12.977a6.2,6.2,0,0,0-2.419-.437c-4.975,0-6.378,5.044-6.378,9.577.024,2.556.731,3.837,2.041,3.837Z" transform="translate(6323.307 6553.111)" fill="#142f4e"/>
    <path id="Path_1011" data-name="Path 1011" d="M726.677,189.945H723.89l.167-2.115h2.831l.407-4.337,2.551-.1-.4,4.44h4.941l-.167,2.115h-4.985l-.942,10.593c-.167,1.678.4,2.689,1.781,2.689a7.246,7.246,0,0,0,3.6-1.045l-.2,2.389a8.581,8.581,0,0,1-3.9.942c-2.723,0-4.17-1.413-3.832-5.279Z" transform="translate(6304.415 6557.389)" fill="#142f4e"/>
    <path id="Path_1012" data-name="Path 1012" d="M756.107,191.75c4.872,0,6.486,4.1,6.486,7.767,0,5.682-2.821,10.254-8.037,10.254-4.872,0-6.486-4.1-6.486-7.732C748.07,196.49,750.9,191.75,756.107,191.75Zm-1.344,15.735c2.453,0,5.142-1.85,5.142-8.105,0-3.66-1.747-5.343-4-5.343-2.453,0-5.147,1.85-5.147,8.1C750.759,205.8,752.51,207.485,754.762,207.485Z" transform="translate(6292.098 6553.13)" fill="#142f4e"/>
    <path id="Path_1013" data-name="Path 1013" d="M782.941,192.088h5.044c-.137,1.472-.3,4.1-.81,7.5l.069.064c.981-4.74,2.522-7.9,6.084-7.9a6.953,6.953,0,0,1,1.649.172l-.4,2.453a5.834,5.834,0,0,0-1.143-.137c-3.4,0-5.583,3.832-6.825,15.21H784.05c.706-5.245,1.011-10.553,1.379-15.21H782.74Z" transform="translate(6274.438 6553.131)" fill="#142f4e"/>
    <path id="Path_1014" data-name="Path 1014" d="M807.011,216.236a6.378,6.378,0,0,0,1.963.27c1.511,0,2.89-.638,4.568-4.131l1.011-2.12-4.47-15.7h-2.556l.2-2.115h4.705l3.194,12.6a8.7,8.7,0,0,1,.4,2.453h.069c.3-.981.54-1.85.839-2.689l4.033-10.254h-2.89l.2-2.115h5.348l-.2,2.115-2.86,7.026c-5.682,14.086-7.09,17.045-11.7,17.045a8.788,8.788,0,0,1-2.051-.27Z" transform="translate(6262.173 6552.779)" fill="#142f4e"/>
    <path id="Path_1015" data-name="Path 1015" d="M298.746,95.587c-10.274,0-17.589-8.341-17.589-18.477s7.168-18.33,17.437-18.33,17.594,8.341,17.594,18.477-7.168,18.33-17.442,18.33m0-42.867c-14.533,0-24.806,11.147-24.806,24.532s10.136,24.394,24.669,24.394,24.8-11.147,24.8-24.532S313.269,52.72,298.741,52.72" transform="translate(6533.604 6623.948)" fill="#142f4e"/>
    <path id="Path_1016" data-name="Path 1016" d="M389.225,25.81H354.16v47.9h35.409V67.479h-28.5V52.667h25.214V46.441H361.073v-14.4h28.152Z" transform="translate(6506.819 6651.373)" fill="#142f4e"/>
    <path id="Path_1017" data-name="Path 1017" d="M497.013,88.706c-4.416,4.141-8.277,6.565-14.606,6.565-9.857,0-17.172-8.277-17.172-18.477s7.32-18.33,17.172-18.33c5.888,0,10.122,2.414,14.228,6.256l4.543-5.093c-4.8-4.519-9.994-7.526-18.713-7.526-14.145,0-24.306,11.152-24.306,24.836,0,13.821,10.23,24.7,24.1,24.7,8.719,0,14.228-3.39,19.228-8.454Z" transform="translate(6439.769 6624.264)" fill="#142f4e"/>
    <path id="Path_1018" data-name="Path 1018" d="M568.57,95.336H558.223V60.1H568.57c11.02,0,18.217,7.477,18.217,17.692s-7.173,17.545-18.217,17.545m0-41.566H551.31v47.9h17.246c15.077,0,25.454-10.47,25.454-24.016s-10.4-23.879-25.454-23.879" transform="translate(6392.321 6623.413)" fill="#142f4e"/>
    <path id="Path_1019" data-name="Path 1019" d="M731.785,85.9H710.717l-5.485,11.957h-8L721.585,45.55l23.491,52.311h-8.125Zm-3.027-6.982-7.3-16.735L713.8,78.923Z" transform="translate(6317.994 6627.6)" fill="#142f4e"/>
    <path id="Path_1020" data-name="Path 1020" d="M818.713,51.85v49.22H811.29V51.85Z" transform="translate(6259.896 6624.391)" fill="#142f4e"/>
    <path id="Path_1021" data-name="Path 1021" d="M656,139.54a4.44,4.44,0,1,1,3.255,4.351A4.416,4.416,0,0,1,656,139.54Z" transform="translate(6338.996 6581.967)" fill="#142f4e"/>
    <path id="Path_1022" data-name="Path 1022" d="M106.716,261.662a3.709,3.709,0,0,0,.981.137,4.235,4.235,0,0,0,1.433-.245q-2.115-.221-4.17-.594A7.11,7.11,0,0,0,106.716,261.662Z" transform="translate(6619.678 6517.877)" fill="none"/>
    <path id="Path_1023" data-name="Path 1023" d="M137.638,261.96a3.7,3.7,0,0,0,.981-.132,7.61,7.61,0,0,0,1.693-.658c-1.354.231-2.718.407-4.1.54A4.224,4.224,0,0,0,137.638,261.96Z" transform="translate(6603.76 6517.771)" fill="none"/>
    <circle id="Ellipse_28" data-name="Ellipse 28" cx="56.109" cy="56.109" r="56.109" transform="translate(6688.017 6665.32)" fill="#7f0506" stroke="#135781" stroke-miterlimit="10" stroke-width="2"/>
    <path id="Vitruvian_man" data-name="Vitruvian man" d="M92.36,83.556c.064.25.186.373.309.373s.128-.064.186-.123c0,.186.064.373.064.491a3.325,3.325,0,0,0,.868,2.291,3.6,3.6,0,0,0,2.6,1.423,3.376,3.376,0,0,0,2.537-1.364,3.221,3.221,0,0,0,.868-2.291c0-.123.064-.309.064-.491.059.064.123.128.182.128a.5.5,0,0,0,.314-.373,9.4,9.4,0,0,1,.368-1.423c.25-.8.064-1.055-.059-1.119a.24.24,0,0,0-.186-.059.667.667,0,0,0-.437.186c.064-.746.064-1.614.064-2.478,0-2.6-3.032-3.037-3.714-3.037s-3.719.373-3.719,3.037c0,.927,0,1.732.064,2.478a.648.648,0,0,0-.432-.186.231.231,0,0,0-.186.059c-.128.128-.309.314-.064,1.119A7.158,7.158,0,0,1,92.36,83.556Zm12.325,78.653a11.667,11.667,0,0,1-1.918-1.55c-.491-.491-.064-1.423-.25-2.414s-.186-1.364.559-4.582a36.954,36.954,0,0,0,1.114-8.547c0-2.723-.868-3.9-.927-5.014s.059-2.355,0-4.087a19.532,19.532,0,0,1,.309-4.524c.309-2.041.682-4.828.927-8.483a28.831,28.831,0,0,0-.309-8.115c-.437-1.923-1.05-3.155-.491-5.2s-.059-3.591-.123-5.264a2.753,2.753,0,0,1,.8-2.6c.741-1.055,1.732-6.069,2.355-7.987a7.518,7.518,0,0,1,.741-1.963c4.583-.491,6.133-1.609,7.06-2.232s.8-.491,2.478-.741a16.893,16.893,0,0,0,6.256-2.232,71.341,71.341,0,0,0,6.628-4.416h.491a5.136,5.136,0,0,0,3.4-.864,1.981,1.981,0,0,1,1.359-.751h1.364c.682,0,1.178-.373.927-.927-.182-.373-1.732-.437-2.537-.437h-.491s.682-.491,1.55-1.236,1.114-.432,2.35-1.114.932-1.241.932-1.241a34.782,34.782,0,0,1-4.71,1.178c-1.8.309-2.787,1.364-5.451,2.414s-5.4,1.3-9.847,2.605a27.407,27.407,0,0,0-7.556,3.528,18.12,18.12,0,0,0-2.453-.186c-4.833,0-6.628,2.478-7.188,2.232h0c-.432.245-1.472-.559-2.164-1.119a5.093,5.093,0,0,1-.491.682,4.041,4.041,0,0,1-2.973,1.55,4.227,4.227,0,0,1-3.037-1.609,4.868,4.868,0,0,1-.491-.682,23.6,23.6,0,0,0-2.169,1.855h0c-.554-.491-2.291-3.032-7.183-3.032a19.01,19.01,0,0,0-2.453.186A28.329,28.329,0,0,0,73.53,81.7c-4.578-1.236-7.242-1.423-9.906-2.527s-3.65-2.1-5.4-2.453a35.407,35.407,0,0,1-4.705-1.236s-.309.491.927,1.236,1.428.373,2.291,1.178a11.614,11.614,0,0,0,1.55,1.236H57.8c-.8,0-2.355.064-2.541.437-.245.554.25.927.932.927H57.55c.309,0,.682,0,1.364.746a5.381,5.381,0,0,0,3.41.829h.491a70.4,70.4,0,0,0,6.633,4.46A17.067,17.067,0,0,0,75.64,88.82c1.609.245,1.55.123,2.453.746s2.453,1.732,7,2.291c0,0,.186,0,.746,1.963s1.545,6.933,2.291,7.987a2.788,2.788,0,0,1,.8,2.6c-.064,1.619-.741,3.223-.123,5.264s-.064,3.282-.491,5.2a29.008,29.008,0,0,0-.309,8.115,83.278,83.278,0,0,0,.864,8.483,19.532,19.532,0,0,1,.309,4.524c-.059,1.732,0,2.973-.059,4.087s-.927,2.227-.927,5.014a33.853,33.853,0,0,0,1.05,8.547c.746,3.282.682,3.591.491,4.646s.25,1.963-.245,2.414a12.291,12.291,0,0,1-1.923,1.55c-.981.618-1.545.864-1.423,1.236s.981.746,2.046,1.055a2.728,2.728,0,0,0,.981.123,3.69,3.69,0,0,0,1.923-.491,2.831,2.831,0,0,1,1.732-.491c.8,0,1.055-.25,1.055-.8a3.808,3.808,0,0,0-.746-1.737,1.614,1.614,0,0,1-.245-1.545,2.805,2.805,0,0,0,.059-1.472c-.064-.79.064-4.273.064-5.888a15.836,15.836,0,0,1,.981-4.215,13.978,13.978,0,0,0,.25-4.519,10.347,10.347,0,0,1,.059-2.787c.186-1.364.559-3.282.927-5.51a31.013,31.013,0,0,0,.559-5.888c0-2.291.25-5.014.491-5.014s.432,2.723.432,5.014a27.122,27.122,0,0,0,.491,5.888c.373,2.227.746,4.146.932,5.51a7.017,7.017,0,0,1,.059,2.787,14,14,0,0,0,.186,4.519,15.471,15.471,0,0,1,.932,4.215c0,1.609.059,5.078,0,5.888a2.831,2.831,0,0,0,.059,1.472,1.5,1.5,0,0,1-.309,1.545c-.373.623-.8,1.119-.741,1.737s.309.8,1.05.8a2.846,2.846,0,0,1,1.737.491,4.165,4.165,0,0,0,1.918.491,5.7,5.7,0,0,0,.981-.123c1.05-.309,1.918-.623,2.041-1.055S105.74,162.891,104.685,162.209ZM75.453,94.767c1.609-.373,1.472-.432,2.6-.123a10.112,10.112,0,0,0,5.078.123c.981-.186,1.614-.491,2.291-.123l-.182-.746c-.25-.927-.437-1.359-.491-1.609C80.414,91.735,78.8,90.68,77.882,90l-.128-.064a3.582,3.582,0,0,0-1.609-.491c-.186,0-.373-.059-.682-.059a8.876,8.876,0,0,1-1.963-.437c-.741,0-1.609,0-2.453.064-4.641.309-7.242,1.055-10.156.927s-4.146-.677-5.942-.432A35.04,35.04,0,0,1,50.117,90s-.123.559,1.236.8,1.472-.123,2.605.25,1.855.618,1.855.618-2.664.868-2.723,1.472.554.741,1.178.554a13.133,13.133,0,0,0,1.3-.491c.319-.123.682-.182,1.545.186s2.355.128,3.964-.554a67.533,67.533,0,0,0,7.742,1.855A14.533,14.533,0,0,0,75.453,94.767Zm67.074-4.416a33.09,33.09,0,0,1-4.833-.491c-1.8-.309-3.037.309-5.946.373s-5.51-.682-10.156-.981c-.868-.064-1.673-.064-2.478-.064a13.836,13.836,0,0,1-1.963.373,2.909,2.909,0,0,1-.682.059,2.36,2.36,0,0,0-1.545.559l-.123.064c-.981.618-2.605,1.732-6.869,2.227-.064.245-.25.682-.491,1.609a5.638,5.638,0,0,0-.186.746c.682-.373,1.236-.064,2.291.123a10.171,10.171,0,0,0,5.078-.123c1.114-.25.927-.186,2.6.186a16.225,16.225,0,0,0,6.628.059,73.228,73.228,0,0,0,7.737-1.8c1.55.618,3.1.981,3.964.559a1.668,1.668,0,0,1,1.55-.186c.309.123.682.245,1.3.491s1.236.059,1.178-.491-2.728-1.472-2.728-1.472.8-.25,1.859-.618,1.178,0,2.6-.25c1.335-.363,1.212-.937,1.212-.937Zm-55.3,32.656a35.742,35.742,0,0,1,.123-7.041c-.25.491-.491.981-.932,1.8A37.18,37.18,0,0,0,82.764,126a24.82,24.82,0,0,1-2.6,6.565,10.276,10.276,0,0,1-2.355,3.219,21.646,21.646,0,0,0-4.583,9.106c-1.178,4.583-1.3,4.995-1.859,5.912s-.741,1.364-1.423,1.55a10.054,10.054,0,0,1-2.664.25,6.711,6.711,0,0,1-2.291-.314c-.682-.25-1.055-.368-1.236-.123a.981.981,0,0,0,.432,1.364c.682.309.618.245.868.682a3.856,3.856,0,0,0,1.545,1.359,3.675,3.675,0,0,0,1.8.628c.559.059.491.059.8.491a3.15,3.15,0,0,0,1.241,1.423c.8.559,1.3.618,1.732.245a2.569,2.569,0,0,0,.746-2.1,3.428,3.428,0,0,1,.432-2.169c.373-.559,1.241-2.453,2.046-4.21a13.883,13.883,0,0,1,2.659-4.273c1.359-1.487,2.605-2.291,3.469-4.46s.8-2.6,1.55-3.469a6.8,6.8,0,0,0,1.178-1.855A8.67,8.67,0,0,1,85.8,133.9c.682-.746,1.55-1.8,2.291-2.792a66.449,66.449,0,0,1-.864-8.1Zm40.006,29.541a5.732,5.732,0,0,1-2.291.245,7.757,7.757,0,0,1-2.664-.309c-.682-.186-.868-.618-1.423-1.545s-.682-1.3-1.859-5.946a21.519,21.519,0,0,0-4.519-9.165,9.862,9.862,0,0,1-2.355-3.223,25.289,25.289,0,0,1-2.6-6.624,36.528,36.528,0,0,0-3.591-8.3c-.437-.741-.682-1.3-.932-1.8a36.557,36.557,0,0,1,.064,7.06c-.186,2.851-.432,5.515-.868,8.238.746,1.055,1.609,2.1,2.232,2.851a8.986,8.986,0,0,1,1.545,1.918,6.756,6.756,0,0,0,1.178,1.859c.741.864.741,1.3,1.55,3.528s2.1,3.037,3.4,4.46a14.39,14.39,0,0,1,2.6,4.273c.8,1.8,1.673,3.714,2.041,4.273a3.974,3.974,0,0,1,.437,2.169,3.071,3.071,0,0,0,.741,2.1c.437.373.932.309,1.737-.25a3.341,3.341,0,0,0,1.236-1.359c.25-.437.186-.437.8-.491a3.837,3.837,0,0,0,1.8-.618,4.362,4.362,0,0,0,1.55-1.364c.245-.437.186-.373.868-.682a.981.981,0,0,0,.432-1.364c-.064-.25-.432-.128-1.114.059Z" transform="translate(6647.614 6612.355)" fill="#fff"/>
    <path id="Path_1024" data-name="Path 1024" d="M142.223,201.074c-.491.186-.8.186-1.114-.123a2.569,2.569,0,0,1-.746-2.1,3.428,3.428,0,0,0-.432-2.169c-.373-.559-1.178-2.478-2.041-4.273a14.509,14.509,0,0,0-2.605-4.273c-1.3-1.472-2.6-2.291-3.4-4.46s-.8-2.6-1.545-3.528a6.756,6.756,0,0,1-1.178-1.859,8.742,8.742,0,0,0-1.55-1.918,31.063,31.063,0,0,1-2.227-2.851c.432-2.664.682-5.4.864-8.238a38.425,38.425,0,0,0-.059-6.687c-.064,0-.064.064-.123.064h-.491a44.647,44.647,0,0,1,.059,6.624c-.245,3.655-.618,6.442-.927,8.488a16.729,16.729,0,0,0-.309,4.519c.123,1.732,0,2.973,0,4.087s.868,2.232.927,5.019a37.351,37.351,0,0,1-1.114,8.542c-.746,3.282-.682,3.6-.559,4.587s-.245,1.963.25,2.414a9.249,9.249,0,0,0,1.918,1.545c.981.623,1.55.868,1.364,1.241a3.716,3.716,0,0,1-2.046,1.05,2.654,2.654,0,0,1-.981.128,3.685,3.685,0,0,1-1.918-.491,2.831,2.831,0,0,0-1.732-.491c-.81,0-1.055-.25-1.055-.8a3.827,3.827,0,0,1,.741-1.737,1.675,1.675,0,0,0,.314-1.545,2.908,2.908,0,0,1-.064-1.472c.064-.79,0-4.273,0-5.888a15.61,15.61,0,0,0-.927-4.215,12.359,12.359,0,0,1-.186-4.519,8.4,8.4,0,0,0-.064-2.787c-.123-1.359-.554-3.282-.927-5.515a26.454,26.454,0,0,1-.491-5.888c.059-2.291-.123-5.014-.437-5.014s-.554,2.723-.491,5.014a30.909,30.909,0,0,1-.594,5.888c-.373,2.232-.8,4.151-.927,5.515a7.016,7.016,0,0,0-.064,2.787,13.89,13.89,0,0,1-.25,4.519,17.989,17.989,0,0,0-.981,4.215c-.054,1.614-.123,5.078-.059,5.888a2.772,2.772,0,0,1-.064,1.472,1.6,1.6,0,0,0,.25,1.546,3.545,3.545,0,0,1,.741,1.737c0,.623-.309.8-1.05.8a2.836,2.836,0,0,0-1.737.491,4.416,4.416,0,0,1-1.918.491,5.276,5.276,0,0,1-.981-.128c-1.055-.309-1.918-.677-2.046-1.05s.373-.618,1.428-1.241a11.956,11.956,0,0,0,1.918-1.545c.491-.437.064-1.423.245-2.414s.186-1.364-.491-4.646a36.656,36.656,0,0,1-1.05-8.547c.064-2.787.927-3.9.927-5.014s0-2.355.064-4.092a19.782,19.782,0,0,0-.309-4.519,83.338,83.338,0,0,1-.868-8.483,43.583,43.583,0,0,1,.064-6.506h-.623a37.6,37.6,0,0,0-.059,6.565c.123,2.851.432,5.515.8,8.238A23.061,23.061,0,0,1,107,176.3a9.063,9.063,0,0,0-1.55,1.918,8.655,8.655,0,0,1-1.178,1.859c-.741.868-.741,1.3-1.545,3.469s-2.1,2.973-3.469,4.46a16.053,16.053,0,0,0-2.664,4.273c-.864,1.8-1.673,3.714-2.041,4.21s-.373,1.055-.437,2.169a3.047,3.047,0,0,1-.741,2.1c-.373.373-.8.309-1.472-.123-.123.123-.186.245-.309.373a55.962,55.962,0,0,0,51.516.432,1.923,1.923,0,0,0-.618-.309C142.287,201.2,142.287,201.138,142.223,201.074Z" transform="translate(6626.488 6570.021)" fill="#ac967f"/>
    <path id="Path_1025" data-name="Path 1025" d="M86.444,29.59A56.128,56.128,0,0,0,59.95,135.179l.373-.368a2.944,2.944,0,0,1-1.178-1.364c-.245-.491-.182-.491-.8-.491a3.871,3.871,0,0,1-1.81-.623,4.381,4.381,0,0,1-1.545-1.364c-.25-.432-.186-.373-.868-.682a.981.981,0,0,1-.432-1.364c.182-.245.554-.123,1.236.128a6.735,6.735,0,0,0,2.291.309,10.151,10.151,0,0,0,2.664-.25c.682-.123.868-.618,1.423-1.545s.682-1.3,1.859-5.946a21.17,21.17,0,0,1,4.583-9.106,10.053,10.053,0,0,0,2.355-3.219,25.512,25.512,0,0,0,2.6-6.565,37.18,37.18,0,0,1,3.65-8.238c.373-.618.623-1.114.81-1.472V92.96c.059-.064.059-.186.123-.25V92.9H77.9a9.322,9.322,0,0,1,.25-1.3c.432-1.918,1.114-3.16.491-5.2s.064-3.591.128-5.264a2.749,2.749,0,0,0-.8-2.6c-.741-1.05-1.737-6.069-2.291-7.992s-.746-1.963-.746-1.963c-4.583-.554-6.069-1.668-7-2.291s-.8-.491-2.453-.741a15.8,15.8,0,0,1-6.192-2.291c-2.914-1.8-6.565-4.583-6.565-4.583h-.491a5.158,5.158,0,0,1-3.41-.868,1.964,1.964,0,0,0-1.359-.741H46.065c-.682,0-1.178-.373-.927-.932.186-.373,1.732-.432,2.537-.432h.491s-.682-.491-1.545-1.241-1.055-.432-2.291-1.173-.9-1.276-.9-1.276a47.592,47.592,0,0,0,4.71,1.241c1.8.368,2.787,1.359,5.4,2.453s5.4,1.364,9.847,2.664A26.381,26.381,0,0,1,70.9,61.977a18.085,18.085,0,0,1,2.453-.182,8.843,8.843,0,0,1,7.183,3.032h0c.491-.491,1.545-1.236,2.169-1.86a4.351,4.351,0,0,0,.491.682,4.1,4.1,0,0,0,3.032,1.609A3.906,3.906,0,0,0,89.2,63.713a2.453,2.453,0,0,0,.491-.682c.682.618,1.732,1.364,2.169,1.114h0c.554.25,2.35-2.227,7.183-2.227a18.154,18.154,0,0,1,2.453.186,27.245,27.245,0,0,1,7.556-3.533c4.46-1.3,7.183-1.472,9.847-2.6s3.655-2.1,5.451-2.414a32.633,32.633,0,0,0,4.705-1.178s.309.491-.927,1.236-1.428.373-2.355,1.119-1.55,1.236-1.55,1.236h.491c.8,0,2.355.064,2.541.432.245.559-.25.932-.927.932h-1.364c-.309,0-.682,0-1.364.741a5.109,5.109,0,0,1-3.4.868H119.7a70.6,70.6,0,0,1-6.628,4.416,16.853,16.853,0,0,1-6.256,2.227c-1.673.265-1.545.128-2.453.746s-2.453,1.732-7.06,2.227c0,0-.186,0-.746,1.963s-1.55,6.938-2.355,7.992-.864.927-.8,2.6.682,3.219.128,5.264.059,3.282.491,5.2c.059.373.123.741.182,1.178h.559c.064,0,.064,0,.064.059V92.7a16.573,16.573,0,0,0,.927,1.8,39.467,39.467,0,0,1,3.591,8.3,23.588,23.588,0,0,0,2.6,6.624,9.447,9.447,0,0,0,2.355,3.223,20.273,20.273,0,0,1,4.519,9.165c1.114,4.646,1.241,5.014,1.859,5.946s.741,1.423,1.423,1.545a9.464,9.464,0,0,0,2.664.309,9.239,9.239,0,0,0,2.291-.245c.682-.25,1.055-.373,1.241-.123a1.03,1.03,0,0,1-.437,1.359c-.682.309-.618.25-.864.682a3.881,3.881,0,0,1-1.55,1.364,3.66,3.66,0,0,1-1.8.618c-.559.064-.491.064-.8.491a3.484,3.484,0,0,1-1.241,1.364.324.324,0,0,1-.245.123,2.561,2.561,0,0,1,.682.432,56.172,56.172,0,0,0-25.6-106.08ZM44.9,66.127c1.8-.309,3.037.309,5.946.432s5.51-.618,10.156-.927c.868-.064,1.673-.064,2.453-.064.741.186,1.364.314,1.963.437a2.909,2.909,0,0,0,.682.059,2.625,2.625,0,0,1,1.472.559l.123.064c.981.618,2.537,1.732,6.869,2.291.064.245.25.682.491,1.609a6.417,6.417,0,0,1,.186.741c-.682-.368-1.241-.059-2.291.128a10.141,10.141,0,0,1-5.078-.128c-1.114-.245-.932-.182-2.6.128a17.458,17.458,0,0,1-6.628.059A67.539,67.539,0,0,1,50.9,69.66c-1.609.618-3.1.981-3.964.554s-1.236-.309-1.545-.186-.682.25-1.3.491-1.241.064-1.178-.554,2.723-1.472,2.723-1.472-.8-.25-1.855-.618-1.178,0-2.605-.25-1.182-.814-1.182-.814C41.669,66.559,43.092,66.436,44.9,66.127ZM90.6,58.822c-.25.8-.25,1.05-.373,1.423-.064.245-.186.373-.309.373s-.123-.064-.186-.128c0,.186-.064.373-.064.491a3.327,3.327,0,0,1-.864,2.291,3.069,3.069,0,0,1-5.142-.059,3.229,3.229,0,0,1-.868-2.291c0-.123-.059-.309-.059-.491-.064.059-.128.123-.186.123a.481.481,0,0,1-.309-.373,10.489,10.489,0,0,0-.373-1.423c-.25-.8-.064-1.055.059-1.114a.231.231,0,0,1,.186-.064.682.682,0,0,1,.437.186c0-.741-.064-1.609-.064-2.453,0-2.6,3.037-3.032,3.714-3.032s3.719.432,3.719,3.032c0,.927,0,1.737-.064,2.453a.672.672,0,0,1,.437-.186.216.216,0,0,1,.182.064c.177.113.363.373.118,1.178ZM131.165,67.8c-1.423.245-1.472-.123-2.6.245l-1.855.623s2.659.864,2.723,1.472-.559.741-1.178.491-.981-.373-1.3-.491a1.638,1.638,0,0,0-1.545.182c-.864.432-2.355.064-3.964-.554a73.46,73.46,0,0,1-7.742,1.8,17.378,17.378,0,0,1-6.628-.064c-1.609-.368-1.472-.432-2.6-.186a10.141,10.141,0,0,1-5.078.128c-.981-.186-1.609-.491-2.291-.128l.186-.741c.245-.927.432-1.364.491-1.609,4.332-.491,5.946-1.55,6.869-2.232l.123-.059a2.591,2.591,0,0,1,1.55-.559c.186,0,.373-.064.682-.064a13.247,13.247,0,0,0,1.963-.368c.8,0,1.609,0,2.453.059,4.646.373,7.247,1.119,10.161.981s4.146-.682,5.942-.368a34.968,34.968,0,0,0,4.833.491c.1.152.226.726-1.2.957Z" transform="translate(6657.682 6635.729)" fill="none"/>
    <path id="Path_1026" data-name="Path 1026" d="M54.77,167.7a6.613,6.613,0,0,0,2.291.309,10.161,10.161,0,0,0,2.664-.245c.682-.128.868-.623,1.428-1.55s.677-1.3,1.855-5.946a21.166,21.166,0,0,1,4.583-9.1,10.024,10.024,0,0,0,2.355-3.223,25.617,25.617,0,0,0,2.6-6.565,36.8,36.8,0,0,1,3.665-8.233,13.011,13.011,0,0,0,.927-1.8v.059c.064-.059.064-.059.123-.059h.491c.064-.373.128-.746.186-1.055.437-1.918,1.114-3.16.491-5.2s.064-3.591.123-5.264a2.749,2.749,0,0,0-.8-2.6c-.677-.932-1.472-4.906-2.041-7.188h-.618v.064c-.682-.373-1.241-.064-2.291.123a10.1,10.1,0,0,1-5.078-.123c-1.119-.245-.932-.186-2.605.123a17.411,17.411,0,0,1-6.624.064,67.09,67.09,0,0,1-7.742-1.86c-1.609.618-3.1.981-3.964.559s-1.236-.309-1.545-.186-.682.245-1.305.491-1.236.064-1.173-.559,2.723-1.472,2.723-1.472-.8-.245-1.859-.618-1.173,0-2.6-.245c-1.236-.186-1.3-.682-1.3-.8h-6.2a55.589,55.589,0,0,0-3.346,19.071,56.175,56.175,0,0,0,30.036,49.718l.006-.429c0-.064,0-.064.064-.064s-.064,0-.064-.059a3.111,3.111,0,0,1-1.236-1.428c-.25-.491-.186-.491-.8-.491a3.783,3.783,0,0,1-1.8-.618,4.313,4.313,0,0,1-1.55-1.364c-.245-.432-.186-.368-.868-.677a.981.981,0,0,1-.432-1.364C53.72,167.331,54.133,167.459,54.77,167.7Z" transform="translate(6657.768 6597.013)" fill="#135781"/>
    <path id="Path_1027" data-name="Path 1027" d="M89.964,29.59a56.246,56.246,0,0,0-52.7,36.724h6.319c.182,0,.182.245.123.309a32.308,32.308,0,0,0,4.705-.491c1.8-.309,3.037.309,5.946.432s5.51-.618,10.156-.927c.868-.064,1.673-.064,2.453-.064.741.186,1.364.314,1.963.437a2.909,2.909,0,0,0,.682.059,2.625,2.625,0,0,1,1.472.559l.123.064c.981.618,2.537,1.732,6.869,2.291.064.245.25.682.491,1.609,0,.123.064.186.064.309h.7c-.064-.186-.064-.373-.123-.491-.559-1.963-.746-1.963-.746-1.963-4.583-.554-6.069-1.673-7-2.291s-.8-.491-2.453-.741a15.875,15.875,0,0,1-6.192-2.291,74.472,74.472,0,0,1-6.565-4.46h-.491a5.158,5.158,0,0,1-3.41-.868,1.964,1.964,0,0,0-1.359-.741H49.585c-.682,0-1.178-.373-.927-.932.186-.373,1.732-.432,2.537-.432h.491S51,55.2,50.139,54.45s-1.055-.432-2.291-1.173-.9-1.271-.9-1.271a47.592,47.592,0,0,0,4.71,1.241c1.8.368,2.787,1.359,5.4,2.453s5.4,1.364,9.847,2.664a26.381,26.381,0,0,1,7.521,3.611,18.085,18.085,0,0,1,2.453-.182,8.843,8.843,0,0,1,7.183,3.032h0c.491-.491,1.545-1.236,2.169-1.859a4.351,4.351,0,0,0,.491.682,4.1,4.1,0,0,0,3.032,1.609,3.906,3.906,0,0,0,2.973-1.545,2.453,2.453,0,0,0,.491-.682c.682.618,1.732,1.364,2.169,1.114h0c.554.25,2.35-2.227,7.183-2.227a18.154,18.154,0,0,1,2.453.186,27.245,27.245,0,0,1,7.556-3.533c4.46-1.3,7.183-1.472,9.847-2.6s3.655-2.1,5.451-2.414a32.633,32.633,0,0,0,4.705-1.178s.309.491-.927,1.236-1.428.373-2.355,1.119-1.55,1.236-1.55,1.236h.491c.8,0,2.355.064,2.541.432.245.559-.25.932-.927.932h-1.364c-.309,0-.682,0-1.364.741a5.109,5.109,0,0,1-3.4.868h-.491A70.6,70.6,0,0,1,116.6,63.36a16.853,16.853,0,0,1-6.256,2.227c-1.673.265-1.545.128-2.453.746s-2.453,1.732-7.06,2.227c0,0-.186,0-.746,1.963s-1.55,6.938-2.355,7.992-.864.927-.8,2.6.682,3.219.128,5.264.059,3.282.491,5.2a31.7,31.7,0,0,1,.309,8.115,78.735,78.735,0,0,1-.932,8.483,16.73,16.73,0,0,0-.309,4.519c.123,1.732,0,2.973,0,4.087s.868,2.232.932,5.019a37.145,37.145,0,0,1-1.074,8.566c-.741,3.282-.682,3.591-.554,4.583s-.25,1.963.245,2.414a9.459,9.459,0,0,0,1.923,1.55c.981.618,1.545.864,1.359,1.236a3.713,3.713,0,0,1-2.041,1.055,2.753,2.753,0,0,1-.981.123,3.69,3.69,0,0,1-1.923-.491,2.821,2.821,0,0,0-1.732-.491c-.8,0-1.055-.25-1.055-.8a3.808,3.808,0,0,1,.746-1.737,1.647,1.647,0,0,0,.309-1.546,2.908,2.908,0,0,1-.064-1.472c.059-.79,0-4.273,0-5.888a15.427,15.427,0,0,0-.927-4.215,12.354,12.354,0,0,1-.186-4.519,8.4,8.4,0,0,0-.059-2.787c-.123-1.364-.559-3.282-.932-5.51a26.822,26.822,0,0,1-.491-5.888c.064-2.291-.123-5.014-.432-5.014s-.559,2.723-.491,5.014a31.012,31.012,0,0,1-.559,5.888c-.368,2.227-.8,4.146-.927,5.51a7.016,7.016,0,0,0-.064,2.787,13.737,13.737,0,0,1-.245,4.519A17.567,17.567,0,0,0,86.4,128.9c-.049,1.609-.123,5.078-.064,5.888a2.884,2.884,0,0,1-.059,1.472,1.6,1.6,0,0,0,.245,1.546,3.547,3.547,0,0,1,.746,1.737c0,.618-.314.8-1.055.8a2.821,2.821,0,0,0-1.732.491,4.416,4.416,0,0,1-1.923.491,5.7,5.7,0,0,1-.981-.123c-1.05-.309-1.918-.682-2.041-1.055s.368-.618,1.423-1.236a12.206,12.206,0,0,0,1.918-1.55c.491-.432.064-1.423.25-2.414s.186-1.364-.491-4.646a33.555,33.555,0,0,1-1.055-8.547c.064-2.723.932-3.9.932-5.014s0-2.355.059-4.087a19.532,19.532,0,0,0-.309-4.524,83.026,83.026,0,0,1-.868-8.483,38.067,38.067,0,0,1,.128-6.751h-.437a.137.137,0,0,1-.123-.123,39.923,39.923,0,0,0-.123,6.869c.123,2.851.432,5.51.8,8.238a23.452,23.452,0,0,1-2.291,2.787,9.063,9.063,0,0,0-1.55,1.918,8.772,8.772,0,0,1-1.178,1.859c-.741.864-.741,1.3-1.545,3.469s-2.1,2.944-3.469,4.455a16.054,16.054,0,0,0-2.664,4.273c-.908,1.761-1.717,3.724-2.085,4.215s-.373,1.05-.437,2.169a3.047,3.047,0,0,1-.741,2.1c-.309.309-.746.309-1.3,0v.491A56.128,56.128,0,1,0,89.964,29.59Zm4.151,29.232c-.25.8-.25,1.05-.373,1.423-.064.245-.186.373-.309.373s-.123-.064-.186-.128c0,.186-.064.373-.064.491a3.327,3.327,0,0,1-.864,2.291,3.069,3.069,0,0,1-5.142-.059,3.229,3.229,0,0,1-.868-2.291c0-.123-.059-.309-.059-.491-.064.059-.128.123-.186.123a.481.481,0,0,1-.309-.373,10.49,10.49,0,0,0-.373-1.423c-.25-.8-.064-1.055.059-1.114a.231.231,0,0,1,.186-.064.682.682,0,0,1,.437.186c0-.741-.064-1.609-.064-2.453,0-2.6,3.037-3.032,3.714-3.032s3.719.432,3.719,3.032c0,.927,0,1.737-.064,2.453a.672.672,0,0,1,.437-.186.216.216,0,0,1,.182.064C94.173,57.757,94.36,58.017,94.114,58.822Zm27.309,71.632c-.682.309-.618.245-.864.682a3.881,3.881,0,0,1-1.55,1.364,3.66,3.66,0,0,1-1.8.618c-.559.059-.491.059-.8.491a3.479,3.479,0,0,1-1.241,1.359c-.8.559-1.3.623-1.732.25a2.569,2.569,0,0,1-.746-2.1,3.428,3.428,0,0,0-.432-2.169c-.373-.559-1.178-2.478-2.041-4.273a14.508,14.508,0,0,0-2.605-4.273c-1.3-1.472-2.6-2.291-3.4-4.46s-.8-2.6-1.545-3.528a6.756,6.756,0,0,1-1.178-1.86,8.742,8.742,0,0,0-1.55-1.918,31.065,31.065,0,0,1-2.227-2.851c.432-2.664.682-5.4.864-8.238a42.685,42.685,0,0,0-.059-7.06,17.526,17.526,0,0,0,.927,1.8,39.467,39.467,0,0,1,3.591,8.3,23.675,23.675,0,0,0,2.6,6.624,9.5,9.5,0,0,0,2.355,3.223,20.317,20.317,0,0,1,4.524,9.165c1.119,4.646,1.236,5.014,1.855,5.946s.746,1.423,1.428,1.545a9.4,9.4,0,0,0,2.659.309,9.209,9.209,0,0,0,2.291-.245c.682-.25,1.055-.373,1.241-.123a1.265,1.265,0,0,1-.559,1.447ZM134.67,67.781c-1.423.245-1.472-.123-2.6.245l-1.855.623s2.659.864,2.723,1.472-.559.741-1.178.491-.981-.373-1.3-.491a1.638,1.638,0,0,0-1.545.182c-.864.432-2.355.064-3.964-.554a73.458,73.458,0,0,1-7.742,1.8,17.378,17.378,0,0,1-6.628-.064c-1.609-.368-1.472-.432-2.6-.186a10.141,10.141,0,0,1-5.078.128c-.981-.186-1.609-.491-2.291-.128l.186-.741c.245-.927.432-1.364.491-1.609,4.332-.491,5.946-1.55,6.869-2.232l.123-.059a2.591,2.591,0,0,1,1.55-.559c.186,0,.373-.064.682-.064a13.247,13.247,0,0,0,1.963-.368c.8,0,1.609,0,2.453.059,4.646.373,7.247,1.119,10.161.981s4.146-.682,5.942-.368a34.967,34.967,0,0,0,4.833.491c.118.172.24.746-1.187.976Z" transform="translate(6654.162 6635.729)" fill="none"/>
    <path id="Path_1028" data-name="Path 1028" d="M125.7,256.342a2.752,2.752,0,0,0,.981.123,5.179,5.179,0,0,0,1.428-.25c-1.428-.123-2.787-.368-4.151-.554a6.025,6.025,0,0,0,1.742.682Z" transform="translate(6610 6520.577)" fill="none"/>
    <path id="Path_1029" data-name="Path 1029" d="M156.573,256.59a5.272,5.272,0,0,0,.981-.128,6.153,6.153,0,0,0,1.673-.682q-2.046.378-4.087.559A3.611,3.611,0,0,0,156.573,256.59Z" transform="translate(6594.118 6520.516)" fill="none"/>
    <path id="Path_1030" data-name="Path 1030" d="M141.508,214.643c-.8,0-1.05-.245-1.05-.8a3.737,3.737,0,0,1,.741-1.732,1.652,1.652,0,0,0,.309-1.55,2.864,2.864,0,0,1-.059-1.472c.064-.79,0-4.273,0-5.888a15.355,15.355,0,0,0-.932-4.21,12.6,12.6,0,0,1-.186-4.524,8.4,8.4,0,0,0-.059-2.787c-.123-1.364-.559-3.282-.932-5.51a27.079,27.079,0,0,1-.491-5.888c.064-2.291-.123-5.019-.432-5.019s-.559,2.728-.491,5.019a30.963,30.963,0,0,1-.559,5.888c-.368,2.227-.8,4.151-.927,5.51a7.021,7.021,0,0,0-.059,2.787,13.919,13.919,0,0,1-.25,4.524,17.708,17.708,0,0,0-.981,4.21c-.054,1.609-.123,5.078-.064,5.888a2.827,2.827,0,0,1-.059,1.472,1.624,1.624,0,0,0,.245,1.55,3.514,3.514,0,0,1,.746,1.732c0,.618-.309.8-1.055.8a2.831,2.831,0,0,0-1.732.491,3.606,3.606,0,0,0-.491.25,55.96,55.96,0,0,0,5.632.309,53.737,53.737,0,0,0,5.515-.25,1.207,1.207,0,0,1-.491-.245,2.728,2.728,0,0,0-1.889-.554Z" transform="translate(6605.527 6561.53)" fill="none"/>
    <path id="Path_1031" data-name="Path 1031" d="M101.376,61.737a27.333,27.333,0,0,1,7.556-3.533c4.46-1.3,7.188-1.472,9.847-2.6s3.655-2.1,5.451-2.414a45.1,45.1,0,0,0,4.583-1.114.221.221,0,0,1,.064-.186,14.985,14.985,0,0,0,1.963-.927,56.138,56.138,0,1,0-54.779,89.055c-.186-.123-.309-.25-.309-.373-.128-.373.368-.618,1.423-1.236a12.206,12.206,0,0,0,1.918-1.55c.491-.432.064-1.423.25-2.414s.186-1.364-.491-4.646a33.554,33.554,0,0,1-1.055-8.547c.064-2.723.932-3.9.932-5.014s0-2.355.059-4.087a19.532,19.532,0,0,0-.309-4.524,83.024,83.024,0,0,1-.868-8.483,31.445,31.445,0,0,1,.314-8.115c.437-1.923,1.114-3.155.491-5.2s.064-3.591.128-5.264a2.753,2.753,0,0,0-.8-2.6C77,76.907,76,71.893,75.446,69.975s-.746-1.963-.746-1.963c-4.583-.559-6.069-1.673-7-2.291s-.8-.491-2.453-.746a16.112,16.112,0,0,1-6.231-2.311,65.925,65.925,0,0,1-6.628-4.46H51.9a5.136,5.136,0,0,1-3.4-.864,1.981,1.981,0,0,0-1.384-.746H45.763c-.677,0-1.173-.373-.927-.927.186-.373,1.732-.437,2.541-.437h.491s-.682-.491-1.55-1.236-1.055-.432-2.291-1.178-.927-1.236-.927-1.236A47.168,47.168,0,0,0,47.8,52.817c1.8.373,2.787,1.364,5.4,2.453s5.4,1.364,9.847,2.664A26.381,26.381,0,0,1,70.6,61.526a18.187,18.187,0,0,1,2.453-.186c4.833,0,6.628,2.541,7.183,2.541h0a5.4,5.4,0,0,0,2.169-1.364,4.868,4.868,0,0,0,.491.682,4.106,4.106,0,0,0,3.032,1.609,3.89,3.89,0,0,0,2.973-1.55,2.286,2.286,0,0,0,.491-.677,5.522,5.522,0,0,0,2.169,1.359h0c.559,0,2.355-2.537,7.183-2.478C99.708,61.55,100.512,61.614,101.376,61.737ZM76.172,94a12.237,12.237,0,0,0,.927-1.8,36.14,36.14,0,0,0-.123,7.06c.123,2.851.437,5.515.8,8.238a22.608,22.608,0,0,1-2.291,2.787,8.987,8.987,0,0,0-1.545,1.918,8.655,8.655,0,0,1-1.178,1.859c-.746.868-.746,1.3-1.55,3.469s-2.1,2.973-3.469,4.46a15.911,15.911,0,0,0-2.659,4.273c-.868,1.8-1.673,3.714-2.046,4.21s-.373,1.055-.432,2.169a3.071,3.071,0,0,1-.746,2.1c-.432.373-.927.309-1.732-.25a3.125,3.125,0,0,1-1.241-1.423c-.245-.491-.182-.491-.8-.491a3.817,3.817,0,0,1-1.8-.618,4.333,4.333,0,0,1-1.545-1.364c-.25-.432-.186-.373-.868-.682a.981.981,0,0,1-.432-1.359c.182-.25.554-.128,1.236.123a6.735,6.735,0,0,0,2.291.309,10.185,10.185,0,0,0,2.664-.245c.682-.128.868-.623,1.423-1.55s.682-1.3,1.859-5.946a21.111,21.111,0,0,1,4.582-9.1,10.024,10.024,0,0,0,2.355-3.223,25.438,25.438,0,0,0,2.6-6.565A38.416,38.416,0,0,1,76.172,94ZM44.713,65.824c1.8-.309,3.032.309,5.946.432s5.51-.618,10.156-.927c.864-.064,1.668-.064,2.453-.064.741.186,1.359.309,1.963.437a2.87,2.87,0,0,0,.677.059,2.363,2.363,0,0,1,1.55.559l.123.064c.981.618,2.541,1.732,6.869,2.291.064.245.25.677.491,1.609a6.417,6.417,0,0,1,.186.741c-.682-.368-1.236-.059-2.291.128a10.141,10.141,0,0,1-5.078-.128c-1.114-.245-.927-.186-2.6.128a17.36,17.36,0,0,1-6.628.059,67.092,67.092,0,0,1-7.742-1.859c-1.609.623-3.1.981-3.959.559a1.668,1.668,0,0,0-1.55-.186c-.309.123-.682.25-1.3.491s-1.241.064-1.178-.554,2.728-1.472,2.728-1.472-.81-.25-1.859-.623-1.178,0-2.6-.245-1.241-.8-1.241-.8C41.489,66.256,42.917,66.133,44.713,65.824Zm45.7-7.359c-.245.8-.245,1.05-.368,1.423-.064.25-.186.373-.314.373s-.123-.064-.182-.123c0,.186-.064.368-.064.491a3.348,3.348,0,0,1-.868,2.291,3.067,3.067,0,0,1-5.137-.064,3.208,3.208,0,0,1-.868-2.291c0-.123-.064-.309-.064-.491-.059.064-.123.123-.186.123a.481.481,0,0,1-.309-.368,9.027,9.027,0,0,0-.373-1.428c-.245-.8-.059-1.05.064-1.114a.226.226,0,0,1,.186-.064.672.672,0,0,1,.432.186c0-.741-.059-1.609-.059-2.453,0-2.6,3.032-3.032,3.714-3.032s3.714.432,3.714,3.032c0,.932,0,1.737-.059,2.453a.672.672,0,0,1,.432-.186.226.226,0,0,1,.182.044c.191.2.378.383.128,1.187Z" transform="translate(6657.92 6636.22)" fill="none"/>
    <path id="Path_1032" data-name="Path 1032" d="M160.132,206.919a55.4,55.4,0,0,0,15.852-5.2l-.064-.064c-.677.437-1.114.437-1.472.064a2.834,2.834,0,0,1-.746-2.1,3.452,3.452,0,0,0-.432-2.169c-.368-.554-1.178-2.453-2.046-4.273a14.39,14.39,0,0,0-2.6-4.273c-1.3-1.472-2.6-2.291-3.4-4.46s-.8-2.6-1.55-3.528a6.869,6.869,0,0,1-1.178-1.859,8.671,8.671,0,0,0-1.546-1.918,31.05,31.05,0,0,1-2.232-2.851c.437-2.664.682-5.4.868-8.238a35.278,35.278,0,0,0,0-6.314h-.618a34.613,34.613,0,0,1,0,6.256c-.25,3.65-.618,6.437-.927,8.483a16.748,16.748,0,0,0-.314,4.519c.123,1.732,0,2.973,0,4.087s.868,2.232.932,5.019a37.39,37.39,0,0,1-1.124,8.566c-.746,3.282-.682,3.591-.559,4.583s-.25,1.963.245,2.414a9.459,9.459,0,0,0,1.923,1.55c.981.618,1.545.864,1.359,1.236C160.5,206.674,160.382,206.8,160.132,206.919Z" transform="translate(6593.223 6569.44)" fill="none"/>
    <path id="Path_1033" data-name="Path 1033" d="M196.878,74.65a11.387,11.387,0,0,1-1.963.927c.059.186,0,.559-.932,1.119-1.236.741-1.423.368-2.35,1.114s-1.55,1.236-1.55,1.236h.491c.8,0,2.355.064,2.541.437.245.554-.25.927-.932.927h-1.374c-.309,0-.682,0-1.364.741a5.081,5.081,0,0,1-3.4.868h-.491a71.343,71.343,0,0,1-6.628,4.416,16.883,16.883,0,0,1-6.256,2.232c-1.673.27-1.546.123-2.478.741s-2.453,1.737-7.06,2.232c0,0-.182,0-.741,1.963s-1.55,6.933-2.355,7.987-.864.927-.8,2.6.682,3.219.123,5.264.064,3.282.491,5.2a12.265,12.265,0,0,1,.25,1.609h.618c0-.182-.064-.309-.064-.491a16.784,16.784,0,0,0,.932,1.8,39.466,39.466,0,0,1,3.591,8.277,23.629,23.629,0,0,0,2.6,6.628,9.375,9.375,0,0,0,2.355,3.219,20.244,20.244,0,0,1,4.519,9.165c1.114,4.646,1.241,5.014,1.859,5.946s.741,1.423,1.423,1.545a11.054,11.054,0,0,0,4.955.064c.682-.245,1.055-.373,1.236-.123a1.025,1.025,0,0,1-.432,1.359c-.682.314-.618.25-.868.682a3.793,3.793,0,0,1-1.545,1.364,3.611,3.611,0,0,1-1.8.618c-.559.064-.491.064-.8.491a3.434,3.434,0,0,1-1.241,1.364h0l.064.064a56.02,56.02,0,0,0,30.635-49.77,57.4,57.4,0,0,0-11.25-33.814Zm-.064,16.225c-1.423.25-1.472-.123-2.6.25l-1.859.618s2.664.868,2.728,1.472-.559.741-1.178.491-.981-.373-1.3-.491a1.639,1.639,0,0,0-1.55.186c-.868.437-2.35.059-3.964-.559a73.227,73.227,0,0,1-7.737,1.8,17.4,17.4,0,0,1-6.628-.059c-1.609-.373-1.472-.437-2.6-.186a10.171,10.171,0,0,1-5.078.123c-.981-.186-1.609-.491-2.291-.123l.186-.746c.245-.927.432-1.364.491-1.609,4.332-.491,5.942-1.55,6.869-2.227l.123-.064a2.649,2.649,0,0,1,1.545-.559c.186,0,.373-.059.682-.059a13.709,13.709,0,0,0,1.963-.373c.8,0,1.609,0,2.478.064,4.646.368,7.247,1.114,10.156.981s4.151-.682,5.946-.373a34.888,34.888,0,0,0,4.833.491C198.114,90.071,198.237,90.689,196.814,90.875Z" transform="translate(6592.086 6612.777)" fill="#135781"/>
    <circle id="Ellipse_29" data-name="Ellipse 29" cx="56.109" cy="56.109" r="56.109" transform="translate(6688.017 6665.32)" fill="none" stroke="#135781" stroke-miterlimit="10" stroke-width="2"/>
    <path id="Vitruvian_man-2" data-name="Vitruvian man" d="M92.36,83.556c.064.25.186.373.309.373s.128-.064.186-.123c0,.186.064.373.064.491a3.325,3.325,0,0,0,.868,2.291,3.6,3.6,0,0,0,2.6,1.423,3.376,3.376,0,0,0,2.537-1.364,3.221,3.221,0,0,0,.868-2.291c0-.123.064-.309.064-.491.059.064.123.128.182.128a.5.5,0,0,0,.314-.373,9.4,9.4,0,0,1,.368-1.423c.25-.8.064-1.055-.059-1.119a.24.24,0,0,0-.186-.059.667.667,0,0,0-.437.186c.064-.746.064-1.614.064-2.478,0-2.6-3.032-3.037-3.714-3.037s-3.719.373-3.719,3.037c0,.927,0,1.732.064,2.478a.648.648,0,0,0-.432-.186.231.231,0,0,0-.186.059c-.128.128-.309.314-.064,1.119A7.158,7.158,0,0,1,92.36,83.556Zm12.325,78.653a11.667,11.667,0,0,1-1.918-1.55c-.491-.491-.064-1.423-.25-2.414s-.186-1.364.559-4.582a36.954,36.954,0,0,0,1.114-8.547c0-2.723-.868-3.9-.927-5.014s.059-2.355,0-4.087a19.532,19.532,0,0,1,.309-4.524c.309-2.041.682-4.828.927-8.483a28.831,28.831,0,0,0-.309-8.115c-.437-1.923-1.05-3.155-.491-5.2s-.059-3.591-.123-5.264a2.753,2.753,0,0,1,.8-2.6c.741-1.055,1.732-6.069,2.355-7.987a7.518,7.518,0,0,1,.741-1.963c4.583-.491,6.133-1.609,7.06-2.232s.8-.491,2.478-.741a16.893,16.893,0,0,0,6.256-2.232,71.341,71.341,0,0,0,6.628-4.416h.491a5.136,5.136,0,0,0,3.4-.864,1.981,1.981,0,0,1,1.359-.751h1.364c.682,0,1.178-.373.927-.927-.182-.373-1.732-.437-2.537-.437h-.491s.682-.491,1.55-1.236,1.114-.432,2.35-1.114.932-1.241.932-1.241a34.782,34.782,0,0,1-4.71,1.178c-1.8.309-2.787,1.364-5.451,2.414s-5.4,1.3-9.847,2.605a27.407,27.407,0,0,0-7.556,3.528,18.12,18.12,0,0,0-2.453-.186c-4.833,0-6.628,2.478-7.188,2.232h0c-.432.245-1.472-.559-2.164-1.119a5.093,5.093,0,0,1-.491.682,4.041,4.041,0,0,1-2.973,1.55,4.227,4.227,0,0,1-3.037-1.609,4.868,4.868,0,0,1-.491-.682,23.6,23.6,0,0,0-2.169,1.855h0c-.554-.491-2.291-3.032-7.183-3.032a19.01,19.01,0,0,0-2.453.186A28.329,28.329,0,0,0,73.53,81.7c-4.578-1.236-7.242-1.423-9.906-2.527s-3.65-2.1-5.4-2.453a35.407,35.407,0,0,1-4.705-1.236s-.309.491.927,1.236,1.428.373,2.291,1.178a11.614,11.614,0,0,0,1.55,1.236H57.8c-.8,0-2.355.064-2.541.437-.245.554.25.927.932.927H57.55c.309,0,.682,0,1.364.746a5.381,5.381,0,0,0,3.41.829h.491a70.4,70.4,0,0,0,6.633,4.46A17.067,17.067,0,0,0,75.64,88.82c1.609.245,1.55.123,2.453.746s2.453,1.732,7,2.291c0,0,.186,0,.746,1.963s1.545,6.933,2.291,7.987a2.788,2.788,0,0,1,.8,2.6c-.064,1.619-.741,3.223-.123,5.264s-.064,3.282-.491,5.2a29.008,29.008,0,0,0-.309,8.115,83.278,83.278,0,0,0,.864,8.483,19.532,19.532,0,0,1,.309,4.524c-.059,1.732,0,2.973-.059,4.087s-.927,2.227-.927,5.014a33.853,33.853,0,0,0,1.05,8.547c.746,3.282.682,3.591.491,4.646s.25,1.963-.245,2.414a12.291,12.291,0,0,1-1.923,1.55c-.981.618-1.545.864-1.423,1.236s.981.746,2.046,1.055a2.728,2.728,0,0,0,.981.123,3.69,3.69,0,0,0,1.923-.491,2.831,2.831,0,0,1,1.732-.491c.8,0,1.055-.25,1.055-.8a3.808,3.808,0,0,0-.746-1.737,1.614,1.614,0,0,1-.245-1.545,2.805,2.805,0,0,0,.059-1.472c-.064-.79.064-4.273.064-5.888a15.836,15.836,0,0,1,.981-4.215,13.978,13.978,0,0,0,.25-4.519,10.347,10.347,0,0,1,.059-2.787c.186-1.364.559-3.282.927-5.51a31.013,31.013,0,0,0,.559-5.888c0-2.291.25-5.014.491-5.014s.432,2.723.432,5.014a27.122,27.122,0,0,0,.491,5.888c.373,2.227.746,4.146.932,5.51a7.017,7.017,0,0,1,.059,2.787,14,14,0,0,0,.186,4.519,15.471,15.471,0,0,1,.932,4.215c0,1.609.059,5.078,0,5.888a2.831,2.831,0,0,0,.059,1.472,1.5,1.5,0,0,1-.309,1.545c-.373.623-.8,1.119-.741,1.737s.309.8,1.05.8a2.846,2.846,0,0,1,1.737.491,4.165,4.165,0,0,0,1.918.491,5.7,5.7,0,0,0,.981-.123c1.05-.309,1.918-.623,2.041-1.055S105.74,162.891,104.685,162.209ZM75.453,94.767c1.609-.373,1.472-.432,2.6-.123a10.112,10.112,0,0,0,5.078.123c.981-.186,1.614-.491,2.291-.123l-.182-.746c-.25-.927-.437-1.359-.491-1.609C80.414,91.735,78.8,90.68,77.882,90l-.128-.064a3.582,3.582,0,0,0-1.609-.491c-.186,0-.373-.059-.682-.059a8.876,8.876,0,0,1-1.963-.437c-.741,0-1.609,0-2.453.064-4.641.309-7.242,1.055-10.156.927s-4.146-.677-5.942-.432A35.04,35.04,0,0,1,50.117,90s-.123.559,1.236.8,1.472-.123,2.605.25,1.855.618,1.855.618-2.664.868-2.723,1.472.554.741,1.178.554a13.133,13.133,0,0,0,1.3-.491c.319-.123.682-.182,1.545.186s2.355.128,3.964-.554a67.533,67.533,0,0,0,7.742,1.855A14.533,14.533,0,0,0,75.453,94.767Zm67.074-4.416a33.09,33.09,0,0,1-4.833-.491c-1.8-.309-3.037.309-5.946.373s-5.51-.682-10.156-.981c-.868-.064-1.673-.064-2.478-.064a13.836,13.836,0,0,1-1.963.373,2.909,2.909,0,0,1-.682.059,2.36,2.36,0,0,0-1.545.559l-.123.064c-.981.618-2.605,1.732-6.869,2.227-.064.245-.25.682-.491,1.609a5.638,5.638,0,0,0-.186.746c.682-.373,1.236-.064,2.291.123a10.171,10.171,0,0,0,5.078-.123c1.114-.25.927-.186,2.6.186a16.225,16.225,0,0,0,6.628.059,73.228,73.228,0,0,0,7.737-1.8c1.55.618,3.1.981,3.964.559a1.668,1.668,0,0,1,1.55-.186c.309.123.682.245,1.3.491s1.236.059,1.178-.491-2.728-1.472-2.728-1.472.8-.25,1.859-.618,1.178,0,2.6-.25c1.335-.363,1.212-.937,1.212-.937Zm-55.3,32.656a35.742,35.742,0,0,1,.123-7.041c-.25.491-.491.981-.932,1.8A37.18,37.18,0,0,0,82.764,126a24.82,24.82,0,0,1-2.6,6.565,10.276,10.276,0,0,1-2.355,3.219,21.646,21.646,0,0,0-4.583,9.106c-1.178,4.583-1.3,4.995-1.859,5.912s-.741,1.364-1.423,1.55a10.054,10.054,0,0,1-2.664.25,6.711,6.711,0,0,1-2.291-.314c-.682-.25-1.055-.368-1.236-.123a.981.981,0,0,0,.432,1.364c.682.309.618.245.868.682a3.856,3.856,0,0,0,1.545,1.359,3.675,3.675,0,0,0,1.8.628c.559.059.491.059.8.491a3.15,3.15,0,0,0,1.241,1.423c.8.559,1.3.618,1.732.245a2.569,2.569,0,0,0,.746-2.1,3.428,3.428,0,0,1,.432-2.169c.373-.559,1.241-2.453,2.046-4.21a13.883,13.883,0,0,1,2.659-4.273c1.359-1.487,2.605-2.291,3.469-4.46s.8-2.6,1.55-3.469a6.8,6.8,0,0,0,1.178-1.855A8.67,8.67,0,0,1,85.8,133.9c.682-.746,1.55-1.8,2.291-2.792a66.449,66.449,0,0,1-.864-8.1Zm40.006,29.541a5.732,5.732,0,0,1-2.291.245,7.757,7.757,0,0,1-2.664-.309c-.682-.186-.868-.618-1.423-1.545s-.682-1.3-1.859-5.946a21.519,21.519,0,0,0-4.519-9.165,9.862,9.862,0,0,1-2.355-3.223,25.289,25.289,0,0,1-2.6-6.624,36.528,36.528,0,0,0-3.591-8.3c-.437-.741-.682-1.3-.932-1.8a36.557,36.557,0,0,1,.064,7.06c-.186,2.851-.432,5.515-.868,8.238.746,1.055,1.609,2.1,2.232,2.851a8.986,8.986,0,0,1,1.545,1.918,6.756,6.756,0,0,0,1.178,1.859c.741.864.741,1.3,1.55,3.528s2.1,3.037,3.4,4.46a14.39,14.39,0,0,1,2.6,4.273c.8,1.8,1.673,3.714,2.041,4.273a3.974,3.974,0,0,1,.437,2.169,3.071,3.071,0,0,0,.741,2.1c.437.373.932.309,1.737-.25a3.341,3.341,0,0,0,1.236-1.359c.25-.437.186-.437.8-.491a3.837,3.837,0,0,0,1.8-.618,4.362,4.362,0,0,0,1.55-1.364c.245-.437.186-.373.868-.682a.981.981,0,0,0,.432-1.364c-.064-.25-.432-.128-1.114.059Z" transform="translate(6647.614 6612.355)" fill="none"/>
    <path id="Path_1034" data-name="Path 1034" d="M141.633,215.533c-.8,0-1.055-.25-1.055-.81a3.75,3.75,0,0,1,.746-1.732,1.652,1.652,0,0,0,.309-1.55,2.908,2.908,0,0,1-.064-1.472c.059-.795,0-4.273,0-5.888a15.352,15.352,0,0,0-.927-4.21,12.36,12.36,0,0,1-.186-4.519,8.267,8.267,0,0,0-.064-2.787c-.128-1.359-.554-3.282-.927-5.515a26.455,26.455,0,0,1-.491-5.888c.064-2.291-.123-5.014-.432-5.014s-.559,2.723-.491,5.014a30.91,30.91,0,0,1-.559,5.888c-.373,2.232-.8,4.151-.927,5.515a7.016,7.016,0,0,0-.064,2.787,14.027,14.027,0,0,1-.245,4.519,17.474,17.474,0,0,0-.981,4.21c-.049,1.609-.128,5.078-.064,5.888a2.772,2.772,0,0,1-.064,1.472,1.624,1.624,0,0,0,.25,1.55,3.5,3.5,0,0,1,.741,1.732c0,.618-.309.81-1.05.81a2.846,2.846,0,0,0-1.737.491,3.489,3.489,0,0,0-.491.245,56.139,56.139,0,0,0,5.637.309,53.657,53.657,0,0,0,5.51-.245,1.291,1.291,0,0,1-.491-.25,3.115,3.115,0,0,0-1.884-.55Z" transform="translate(6605.466 6561.077)" fill="none"/>
    <path id="Path_1035" data-name="Path 1035" d="M98.318,29.589a56.074,56.074,0,0,0-44.9,22.172c.123.059.186.059.309.123a7.85,7.85,0,0,1,1.609.8.064.064,0,0,1,.064.064,30.753,30.753,0,0,0,4.583,1.173c1.8.373,2.787,1.364,5.4,2.453s5.4,1.364,9.847,2.664a26.381,26.381,0,0,1,7.546,3.621,18.186,18.186,0,0,1,2.453-.186c4.828,0,6.624,2.541,7.183,2.541h0a5.4,5.4,0,0,0,2.169-1.364,4.351,4.351,0,0,0,.491.682A4.1,4.1,0,0,0,98.1,65.945a3.9,3.9,0,0,0,2.973-1.545,2.37,2.37,0,0,0,.491-.682,5.545,5.545,0,0,0,2.169,1.364h0c.559,0,2.355-2.541,7.183-2.453a18.821,18.821,0,0,1,2.453.182,27.318,27.318,0,0,1,7.556-3.528c4.46-1.3,7.183-1.472,9.847-2.6s3.655-2.1,5.451-2.414a33.124,33.124,0,0,0,4.705-1.178s.309.491-.927,1.236-1.423.373-2.355,1.114-1.545,1.241-1.545,1.241h.491c.8,0,2.35.059,2.537.432.25.559-.245.932-.927.932h-1.364c-.309,0-.682,0-1.364.741a5.109,5.109,0,0,1-3.4.868h-.491a70.955,70.955,0,0,1-6.624,4.416A16.911,16.911,0,0,1,118.7,66.3c-1.668.265-1.55.128-2.478.746s-2.453,1.732-7.06,2.227c0,0-.186,0-.746,1.963s-1.545,6.938-2.35,7.987-.868.932-.8,2.605.677,3.219.123,5.264.059,3.282.491,5.2a31.675,31.675,0,0,1,.309,8.11,79.226,79.226,0,0,1-.927,8.488,16.747,16.747,0,0,0-.314,4.519c.123,1.732,0,2.973,0,4.087s.868,2.232.932,5.019a37.391,37.391,0,0,1-1.114,8.547c-.746,3.282-.682,3.591-.559,4.583s-.25,1.963.245,2.414a9.459,9.459,0,0,0,1.923,1.55c.981.618,1.545.864,1.359,1.236a1.045,1.045,0,0,1-.368.373A56.207,56.207,0,0,0,98.318,29.59Zm4.151,29.786c-.25.8-.25,1.055-.373,1.428-.059.245-.186.368-.309.368s-.123-.059-.186-.123c0,.186-.059.373-.059.491a3.371,3.371,0,0,1-.868,2.291,3.066,3.066,0,0,1-5.142-.064,3.242,3.242,0,0,1-.868-2.291c0-.123-.059-.309-.059-.491-.064.064-.123.128-.186.128a.482.482,0,0,1-.309-.373,9.616,9.616,0,0,0-.373-1.423c-.245-.8-.064-1.055.064-1.119a.231.231,0,0,1,.186-.059.648.648,0,0,1,.432.186c0-.746-.064-1.614-.064-2.453,0-2.6,3.037-3.037,3.719-3.037s3.714.437,3.714,3.037c0,.927,0,1.732-.064,2.453a.667.667,0,0,1,.437-.186.24.24,0,0,1,.186.059C102.532,58.385,102.714,58.571,102.469,59.376Zm27.309,71.657c-.677.309-.618.245-.864.677a3.847,3.847,0,0,1-1.55,1.364,3.611,3.611,0,0,1-1.8.618c-.554.064-.491.064-.8.491a3.434,3.434,0,0,1-1.236,1.364c-.81.559-1.3.618-1.737.25a2.551,2.551,0,0,1-.741-2.11,3.391,3.391,0,0,0-.437-2.164c-.373-.554-1.173-2.478-2.041-4.273a14.39,14.39,0,0,0-2.6-4.273c-1.3-1.472-2.605-2.291-3.41-4.46s-.8-2.6-1.545-3.533a6.678,6.678,0,0,1-1.178-1.855,8.731,8.731,0,0,0-1.55-1.923,30.947,30.947,0,0,1-2.227-2.846c.432-2.664.682-5.4.868-8.238a42.591,42.591,0,0,0-.064-7.06,17.526,17.526,0,0,0,.927,1.8,39.511,39.511,0,0,1,3.6,8.3,23.261,23.261,0,0,0,2.6,6.628,9.369,9.369,0,0,0,2.35,3.219,20.016,20.016,0,0,1,4.524,9.17c1.089,4.646,1.236,5.014,1.859,5.942s.741,1.428,1.423,1.55a9.44,9.44,0,0,0,2.664.309,9.778,9.778,0,0,0,2.291-.245c.677-.25,1.05-.373,1.236-.128A1.249,1.249,0,0,1,129.777,131.033Zm13.247-62.614c-1.428.25-1.472-.123-2.6.25l-1.84.618s2.664.868,2.723,1.472-.554.741-1.178.491-.981-.373-1.3-.491a1.629,1.629,0,0,0-1.545.186c-.868.437-2.355.059-3.964-.559a73.461,73.461,0,0,1-7.742,1.8,17.251,17.251,0,0,1-6.624-.064c-1.614-.368-1.472-.432-2.605-.182a10.22,10.22,0,0,1-5.078.123c-.981-.186-1.609-.491-2.291-.123l.186-.746c.25-.927.437-1.364.491-1.609,4.337-.491,5.946-1.55,6.869-2.227l.123-.064a2.654,2.654,0,0,1,1.55-.559c.186,0,.373-.059.682-.059a13.964,13.964,0,0,0,1.963-.373c.8,0,1.609,0,2.478.064,4.641.368,7.247,1.114,10.156.981s4.151-.682,5.946-.373a34.9,34.9,0,0,0,4.828.491c.083.108.221.711-1.217.957Z" transform="translate(6645.93 6635.73)" fill="none"/>
    <path id="Path_1036" data-name="Path 1036" d="M61.1,158.315a2.6,2.6,0,0,1-.682-.373,3.106,3.106,0,0,1-1.236-1.423c-.25-.491-.186-.491-.8-.491a3.871,3.871,0,0,1-1.781-.623,4.381,4.381,0,0,1-1.545-1.364c-.25-.437-.186-.373-.868-.682A.981.981,0,0,1,53.752,152c.186-.245.554-.123,1.236.128a6.735,6.735,0,0,0,2.291.309,10.342,10.342,0,0,0,2.664-.25c.682-.123.868-.618,1.423-1.545s.682-1.3,1.859-5.946a21.225,21.225,0,0,1,4.583-9.106,10.053,10.053,0,0,0,2.355-3.219,25.692,25.692,0,0,0,2.6-6.565,36.945,36.945,0,0,1,3.655-8.238c.309-.491.491-.927.682-1.236,0-.064,0-.128.059-.128l.186-.368a.751.751,0,0,1-.064.368h.623a10.44,10.44,0,0,1,.245-1.472c.432-1.918,1.114-3.155.491-5.2s.064-3.591.123-5.264a2.753,2.753,0,0,0-.8-2.6c-.746-1.055-1.732-6.069-2.291-7.987s-.741-1.963-.741-1.963c-4.583-.559-6.069-1.673-7-2.291s-.8-.491-2.453-.746a16.567,16.567,0,0,1-6.231-2.326,66.235,66.235,0,0,1-6.624-4.46h-.491a5.16,5.16,0,0,1-3.41-.864,1.977,1.977,0,0,0-1.359-.746H45.99c-.682,0-1.178-.368-.927-.927.186-.373,1.732-.432,2.537-.432h.491s-.682-.491-1.545-1.241-1.055-.432-2.291-1.178c-.81-.491-.932-.864-.932-1.05l-1.472-.746c-.123-.059-.309-.123-.432-.186a56.123,56.123,0,0,0,19.684,83.8ZM47.167,93.164a1.624,1.624,0,0,0-1.55-.186c-.309.123-.682.245-1.3.491s-1.236.064-1.178-.559,2.728-1.472,2.728-1.472-.8-.245-1.859-.618-1.178,0-2.6-.245-1.241-.8-1.241-.8A33.087,33.087,0,0,0,45,89.278c1.8-.314,3.037.309,5.946.432s5.51-.618,10.156-.927c.868-.064,1.673-.064,2.453-.064.741.186,1.364.309,1.963.432a2.694,2.694,0,0,0,.682.064,2.309,2.309,0,0,1,1.545.559l.123.059c.981.618,2.541,1.737,6.869,2.291.059.25.245.682.491,1.609a5.638,5.638,0,0,1,.186.746c-.677-.373-1.236-.064-2.291.123a10.112,10.112,0,0,1-5.078-.123c-1.114-.25-.927-.186-2.6.123a17.411,17.411,0,0,1-6.624.064,67.09,67.09,0,0,1-7.742-1.86C49.518,93.223,48.036,93.6,47.167,93.164Z" transform="translate(6657.756 6612.844)" fill="#0f8793"/>
    <path id="Path_1037" data-name="Path 1037" d="M111.826,201.909c.186-1.05.186-1.364-.491-4.646a36.616,36.616,0,0,1-1.05-8.542c.064-2.787.927-3.925.927-5.019s0-2.355.064-4.087a19.768,19.768,0,0,0-.309-4.519,83.3,83.3,0,0,1-.868-8.488,42.013,42.013,0,0,1,.064-6.378h-.623a43.5,43.5,0,0,0-.059,6.442c.123,2.851.432,5.51.8,8.238a23.454,23.454,0,0,1-2.291,2.787,9.063,9.063,0,0,0-1.55,1.918,8.773,8.773,0,0,1-1.178,1.859c-.741.864-.741,1.3-1.545,3.469s-2.1,2.968-3.469,4.455a16.054,16.054,0,0,0-2.664,4.273c-.868,1.8-1.678,3.734-2.046,4.224s-.373,1.05-.437,2.164a3.052,3.052,0,0,1-.741,2.11.947.947,0,0,1-.8.186v.059a53.866,53.866,0,0,0,14.984,4.955c-.182-.123-.309-.25-.309-.373-.123-.373.373-.618,1.428-1.236a11.669,11.669,0,0,0,1.918-1.55C112.076,203.891,111.645,202.964,111.826,201.909Z" transform="translate(6625.484 6569.186)" fill="none"/>
    <path id="Vitruvian_man-3" data-name="Vitruvian man" d="M92.761,83.474c.064.25.186.373.309.373s.123-.064.186-.123c0,.186.064.373.064.491a3.345,3.345,0,0,0,.864,2.291,3.61,3.61,0,0,0,2.605,1.423,3.376,3.376,0,0,0,2.537-1.364,3.221,3.221,0,0,0,.868-2.291c0-.123.059-.309.059-.491.064.064.128.128.186.128a.491.491,0,0,0,.309-.373,10.3,10.3,0,0,1,.373-1.423c.25-.8.064-1.055-.059-1.119a.24.24,0,0,0-.186-.059.657.657,0,0,0-.437.186c.064-.746.064-1.614.064-2.478,0-2.6-3.037-3.037-3.714-3.037s-3.719.373-3.719,3.037c0,.927,0,1.732.064,2.478a.648.648,0,0,0-.437-.186.226.226,0,0,0-.182.059c-.128.128-.314.314-.064,1.119A7.158,7.158,0,0,1,92.761,83.474Zm12.325,78.653a11.668,11.668,0,0,1-1.918-1.55c-.491-.491-.064-1.423-.25-2.414s-.186-1.364.559-4.582a36.954,36.954,0,0,0,1.114-8.547c0-2.723-.868-3.9-.927-5.014s.059-2.355,0-4.087a19.532,19.532,0,0,1,.309-4.524c.309-2.041.682-4.828.927-8.483a29.019,29.019,0,0,0-.309-8.115c-.432-1.923-1.055-3.155-.491-5.2s-.064-3.591-.123-5.264a2.753,2.753,0,0,1,.8-2.6c.746-1.055,1.732-6.069,2.355-7.987a7.518,7.518,0,0,1,.741-1.963c4.583-.491,6.133-1.609,7.06-2.232s.8-.491,2.478-.741a16.893,16.893,0,0,0,6.256-2.232,70.961,70.961,0,0,0,6.624-4.416h.491a5.279,5.279,0,0,0,3.434-.864c.648-.618,1.025-.751,1.335-.751h1.364c.682,0,1.178-.373.927-.927-.186-.373-1.732-.437-2.537-.437h-.491s.682-.491,1.545-1.236,1.119-.432,2.355-1.114.927-1.241.927-1.241a34.52,34.52,0,0,1-4.705,1.178c-1.8.309-2.787,1.364-5.451,2.414s-5.4,1.3-9.847,2.605a27.318,27.318,0,0,0-7.551,3.533,18.154,18.154,0,0,0-2.453-.186c-4.828,0-6.624,2.478-7.183,2.478h0a6.493,6.493,0,0,1-2.169-1.364,4.351,4.351,0,0,1-.491.682,4.025,4.025,0,0,1-2.968,1.55,4.227,4.227,0,0,1-3.037-1.609A4.867,4.867,0,0,1,93.3,86.2a5.6,5.6,0,0,1-2.227,1.423h0c-.559,0-2.291-2.537-7.188-2.537a18.809,18.809,0,0,0-2.453.182,28.6,28.6,0,0,0-7.61-3.591c-4.46-1.3-7.188-1.545-9.847-2.664s-3.655-2.1-5.4-2.453a34.864,34.864,0,0,1-4.705-1.241s-.309.491.927,1.241,1.428.368,2.291,1.173a11.956,11.956,0,0,0,1.55,1.241h-.52c-.8,0-2.355.059-2.537.432-.25.559.245.932.927.932h1.364c.309,0,.677,0,1.359.741a5.156,5.156,0,0,0,3.434.868h.491a70.4,70.4,0,0,0,6.628,4.46A17.161,17.161,0,0,0,75.981,88.7c1.609.25,1.55.123,2.453.741s2.453,1.737,7,2.291c0,0,.182,0,.741,1.963s1.55,6.938,2.291,7.988a2.8,2.8,0,0,1,.8,2.605c-.064,1.624-.741,3.219-.123,5.26s-.064,3.282-.491,5.206a28.993,28.993,0,0,0-.309,8.11,81.909,81.909,0,0,0,.868,8.488,19.767,19.767,0,0,1,.309,4.519c-.064,1.732,0,2.973-.064,4.087s-.922,2.232-.922,5.019a33.854,33.854,0,0,0,1.05,8.542c.746,3.282.682,3.6.491,4.646s.25,1.963-.245,2.414a11.887,11.887,0,0,1-1.918,1.55c-.981.618-1.55.868-1.428,1.236s.981.746,2.046,1.055a2.753,2.753,0,0,0,.981.123,3.685,3.685,0,0,0,1.918-.491,2.866,2.866,0,0,1,1.732-.491c.81,0,1.055-.245,1.055-.8a3.789,3.789,0,0,0-.741-1.732,1.609,1.609,0,0,1-.25-1.55A2.846,2.846,0,0,0,93.3,158c-.059-.79.059-4.273.059-5.888a15.946,15.946,0,0,1,.981-4.21,14.008,14.008,0,0,0,.25-4.524,10.548,10.548,0,0,1,.059-2.787c.186-1.359.559-3.282.932-5.51a31.327,31.327,0,0,0,.554-5.888c0-2.291.25-5.019.491-5.019s.437,2.728.437,5.019a26.455,26.455,0,0,0,.491,5.888c.368,2.227.741,4.151.927,5.51a7.11,7.11,0,0,1,.064,2.787,13.885,13.885,0,0,0,.182,4.524,15.4,15.4,0,0,1,.932,4.21c0,1.609.059,5.078,0,5.888a2.88,2.88,0,0,0,.059,1.472,1.472,1.472,0,0,1-.309,1.55c-.368.618-.8,1.114-.741,1.732s.309.8,1.05.8a2.87,2.87,0,0,1,1.737.491,4.121,4.121,0,0,0,1.918.491,5.265,5.265,0,0,0,.981-.123c1.055-.309,1.918-.618,2.046-1.055S106.077,162.81,105.086,162.128Zm-29.3-67.442c1.609-.373,1.472-.432,2.6-.123a10.1,10.1,0,0,0,5.078.123c.981-.186,1.609-.491,2.291-.123l-.157-.756c-.25-.927-.432-1.359-.491-1.609-4.337-.554-5.946-1.609-6.869-2.291l-.123-.064a2.62,2.62,0,0,0-1.55-.554c-.186,0-.373-.064-.682-.064a8.831,8.831,0,0,1-1.963-.432c-.741,0-1.609,0-2.453.059-4.641.314-7.247,1.055-10.156.932s-4.151-.682-5.946-.437a33.452,33.452,0,0,1-4.828.491s-.123.559,1.236.81,1.472-.128,2.6.245,1.786.633,1.786.633S53.5,92.394,53.437,93s.554.746,1.178.559.981-.373,1.3-.491a1.848,1.848,0,0,1,1.545.186c.868.373,2.355.123,3.964-.559a67.093,67.093,0,0,0,7.742,1.859A13.831,13.831,0,0,0,75.785,94.685Zm67.128-4.416a33.094,33.094,0,0,1-4.828-.491c-1.8-.309-3.037.309-5.946.373s-5.51-.682-10.156-.981c-.868-.064-1.673-.064-2.478-.064a13.837,13.837,0,0,1-1.963.373,2.909,2.909,0,0,1-.682.059,2.36,2.36,0,0,0-1.545.559l-.128.064c-.981.618-2.6,1.732-6.869,2.227-.059.245-.245.682-.491,1.609a6.682,6.682,0,0,0-.182.746c.677-.373,1.236-.064,2.291.123a10.171,10.171,0,0,0,5.078-.123c1.114-.25.927-.186,2.6.186a16.2,16.2,0,0,0,6.624.059,73.457,73.457,0,0,0,7.742-1.8c1.55.618,3.1.981,3.964.559a1.668,1.668,0,0,1,1.55-.186c.309.123.677.245,1.3.491s1.236.059,1.178-.491-2.728-1.472-2.728-1.472.8-.25,1.859-.618,1.178,0,2.6-.25c1.344-.363,1.217-.937,1.217-.937ZM87.619,122.926a36.062,36.062,0,0,1,.128-7.06c-.25.491-.491.981-.932,1.8a37.18,37.18,0,0,0-3.67,8.238,24.636,24.636,0,0,1-2.605,6.565,10.348,10.348,0,0,1-2.35,3.219,21.646,21.646,0,0,0-4.583,9.106c-1.178,4.583-1.256,5.014-1.84,5.932s-.741,1.364-1.423,1.55a10.078,10.078,0,0,1-2.664.25,6.691,6.691,0,0,1-2.291-.314c-.682-.25-1.055-.368-1.241-.123a.981.981,0,0,0,.437,1.364c.682.309.618.245.868.682A3.822,3.822,0,0,0,67,155.489a3.675,3.675,0,0,0,1.8.628c.559.059.491.059.8.491a3.15,3.15,0,0,0,1.241,1.423c.8.559,1.3.618,1.732.245a2.569,2.569,0,0,0,.746-2.1A3.428,3.428,0,0,1,73.749,154c.373-.559,1.236-2.453,2.046-4.21a13.976,13.976,0,0,1,2.659-4.273c1.359-1.487,2.6-2.291,3.469-4.46s.8-2.6,1.55-3.469a6.917,6.917,0,0,0,1.178-1.855,8.67,8.67,0,0,1,1.545-1.918c.682-.746,1.55-1.8,2.291-2.792a56.548,56.548,0,0,1-.868-8.1Zm40.011,29.541a5.732,5.732,0,0,1-2.291.245,7.757,7.757,0,0,1-2.664-.309c-.682-.186-.868-.618-1.428-1.546s-.677-1.3-1.855-5.946a21.454,21.454,0,0,0-4.524-9.165,9.787,9.787,0,0,1-2.35-3.223,25.289,25.289,0,0,1-2.6-6.624,36.307,36.307,0,0,0-3.6-8.3c-.432-.741-.677-1.3-.927-1.8a36.557,36.557,0,0,1,.064,7.06c-.186,2.851-.437,5.515-.868,8.238.741,1.055,1.609,2.1,2.227,2.851a9.063,9.063,0,0,1,1.55,1.918,6.756,6.756,0,0,0,1.178,1.859c.741.863.741,1.3,1.545,3.528s2.11,3.037,3.41,4.46a14.39,14.39,0,0,1,2.6,4.273c.8,1.8,1.673,3.714,2.041,4.273a3.975,3.975,0,0,1,.437,2.169,3.047,3.047,0,0,0,.741,2.1c.437.373.927.309,1.737-.25a3.341,3.341,0,0,0,1.236-1.359c.25-.437.186-.437.8-.491a3.857,3.857,0,0,0,1.8-.618,4.362,4.362,0,0,0,1.55-1.364c.245-.437.186-.373.864-.682a.981.981,0,0,0,.437-1.364c-.064-.25-.5-.128-1.114.059Z" transform="translate(6647.4 6612.437)" fill="#fff" stroke="#135781" stroke-miterlimit="10" stroke-width="1.5"/>
    <path id="Vitruvian_man-4" data-name="Vitruvian man" d="M92.761,83.474c.064.25.186.373.309.373s.123-.064.186-.123c0,.186.064.373.064.491a3.345,3.345,0,0,0,.864,2.291,3.61,3.61,0,0,0,2.605,1.423,3.376,3.376,0,0,0,2.537-1.364,3.221,3.221,0,0,0,.868-2.291c0-.123.059-.309.059-.491.064.064.128.128.186.128a.491.491,0,0,0,.309-.373,10.3,10.3,0,0,1,.373-1.423c.25-.8.064-1.055-.059-1.119a.24.24,0,0,0-.186-.059.657.657,0,0,0-.437.186c.064-.746.064-1.614.064-2.478,0-2.6-3.037-3.037-3.714-3.037s-3.719.373-3.719,3.037c0,.927,0,1.732.064,2.478a.648.648,0,0,0-.437-.186.226.226,0,0,0-.182.059c-.128.128-.314.314-.064,1.119A7.158,7.158,0,0,1,92.761,83.474Zm12.325,78.653a11.668,11.668,0,0,1-1.918-1.55c-.491-.491-.064-1.423-.25-2.414s-.186-1.364.559-4.582a36.954,36.954,0,0,0,1.114-8.547c0-2.723-.868-3.9-.927-5.014s.059-2.355,0-4.087a19.532,19.532,0,0,1,.309-4.524c.309-2.041.682-4.828.927-8.483a29.019,29.019,0,0,0-.309-8.115c-.432-1.923-1.055-3.155-.491-5.2s-.064-3.591-.123-5.264a2.753,2.753,0,0,1,.8-2.6c.746-1.055,1.732-6.069,2.355-7.987a7.518,7.518,0,0,1,.741-1.963c4.583-.491,6.133-1.609,7.06-2.232s.8-.491,2.478-.741a16.893,16.893,0,0,0,6.256-2.232,70.961,70.961,0,0,0,6.624-4.416h.491a5.279,5.279,0,0,0,3.434-.864c.648-.618,1.025-.751,1.335-.751h1.364c.682,0,1.178-.373.927-.927-.186-.373-1.732-.437-2.537-.437h-.491s.682-.491,1.545-1.236,1.119-.432,2.355-1.114.927-1.241.927-1.241a34.52,34.52,0,0,1-4.705,1.178c-1.8.309-2.787,1.364-5.451,2.414s-5.4,1.3-9.847,2.605a27.318,27.318,0,0,0-7.551,3.533,18.154,18.154,0,0,0-2.453-.186c-4.828,0-6.624,2.478-7.183,2.478h0a6.493,6.493,0,0,1-2.169-1.364,4.351,4.351,0,0,1-.491.682,4.025,4.025,0,0,1-2.968,1.55,4.227,4.227,0,0,1-3.037-1.609A4.867,4.867,0,0,1,93.3,86.2a5.6,5.6,0,0,1-2.227,1.423h0c-.559,0-2.291-2.537-7.188-2.537a18.809,18.809,0,0,0-2.453.182,28.6,28.6,0,0,0-7.61-3.591c-4.46-1.3-7.188-1.545-9.847-2.664s-3.655-2.1-5.4-2.453a34.864,34.864,0,0,1-4.705-1.241s-.309.491.927,1.241,1.428.368,2.291,1.173a11.956,11.956,0,0,0,1.55,1.241h-.52c-.8,0-2.355.059-2.537.432-.25.559.245.932.927.932h1.364c.309,0,.677,0,1.359.741a5.156,5.156,0,0,0,3.434.868h.491a70.4,70.4,0,0,0,6.628,4.46A17.161,17.161,0,0,0,75.981,88.7c1.609.25,1.55.123,2.453.741s2.453,1.737,7,2.291c0,0,.182,0,.741,1.963s1.55,6.938,2.291,7.988a2.8,2.8,0,0,1,.8,2.605c-.064,1.624-.741,3.219-.123,5.26s-.064,3.282-.491,5.206a28.993,28.993,0,0,0-.309,8.11,81.909,81.909,0,0,0,.868,8.488,19.767,19.767,0,0,1,.309,4.519c-.064,1.732,0,2.973-.064,4.087s-.922,2.232-.922,5.019a33.854,33.854,0,0,0,1.05,8.542c.746,3.282.682,3.6.491,4.646s.25,1.963-.245,2.414a11.887,11.887,0,0,1-1.918,1.55c-.981.618-1.55.868-1.428,1.236s.981.746,2.046,1.055a2.753,2.753,0,0,0,.981.123,3.685,3.685,0,0,0,1.918-.491,2.866,2.866,0,0,1,1.732-.491c.81,0,1.055-.245,1.055-.8a3.789,3.789,0,0,0-.741-1.732,1.609,1.609,0,0,1-.25-1.55A2.846,2.846,0,0,0,93.3,158c-.059-.79.059-4.273.059-5.888a15.946,15.946,0,0,1,.981-4.21,14.008,14.008,0,0,0,.25-4.524,10.548,10.548,0,0,1,.059-2.787c.186-1.359.559-3.282.932-5.51a31.327,31.327,0,0,0,.554-5.888c0-2.291.25-5.019.491-5.019s.437,2.728.437,5.019a26.455,26.455,0,0,0,.491,5.888c.368,2.227.741,4.151.927,5.51a7.11,7.11,0,0,1,.064,2.787,13.885,13.885,0,0,0,.182,4.524,15.4,15.4,0,0,1,.932,4.21c0,1.609.059,5.078,0,5.888a2.88,2.88,0,0,0,.059,1.472,1.472,1.472,0,0,1-.309,1.55c-.368.618-.8,1.114-.741,1.732s.309.8,1.05.8a2.87,2.87,0,0,1,1.737.491,4.121,4.121,0,0,0,1.918.491,5.265,5.265,0,0,0,.981-.123c1.055-.309,1.918-.618,2.046-1.055S106.077,162.81,105.086,162.128Zm-29.3-67.442c1.609-.373,1.472-.432,2.6-.123a10.1,10.1,0,0,0,5.078.123c.981-.186,1.609-.491,2.291-.123l-.157-.756c-.25-.927-.432-1.359-.491-1.609-4.337-.554-5.946-1.609-6.869-2.291l-.123-.064a2.62,2.62,0,0,0-1.55-.554c-.186,0-.373-.064-.682-.064a8.831,8.831,0,0,1-1.963-.432c-.741,0-1.609,0-2.453.059-4.641.314-7.247,1.055-10.156.932s-4.151-.682-5.946-.437a33.452,33.452,0,0,1-4.828.491s-.123.559,1.236.81,1.472-.128,2.6.245,1.786.633,1.786.633S53.5,92.394,53.437,93s.554.746,1.178.559.981-.373,1.3-.491a1.848,1.848,0,0,1,1.545.186c.868.373,2.355.123,3.964-.559a67.093,67.093,0,0,0,7.742,1.859A13.831,13.831,0,0,0,75.785,94.685Zm67.128-4.416a33.094,33.094,0,0,1-4.828-.491c-1.8-.309-3.037.309-5.946.373s-5.51-.682-10.156-.981c-.868-.064-1.673-.064-2.478-.064a13.837,13.837,0,0,1-1.963.373,2.909,2.909,0,0,1-.682.059,2.36,2.36,0,0,0-1.545.559l-.128.064c-.981.618-2.6,1.732-6.869,2.227-.059.245-.245.682-.491,1.609a6.682,6.682,0,0,0-.182.746c.677-.373,1.236-.064,2.291.123a10.171,10.171,0,0,0,5.078-.123c1.114-.25.927-.186,2.6.186a16.2,16.2,0,0,0,6.624.059,73.457,73.457,0,0,0,7.742-1.8c1.55.618,3.1.981,3.964.559a1.668,1.668,0,0,1,1.55-.186c.309.123.677.245,1.3.491s1.236.059,1.178-.491-2.728-1.472-2.728-1.472.8-.25,1.859-.618,1.178,0,2.6-.25c1.344-.363,1.217-.937,1.217-.937ZM87.619,122.926a36.062,36.062,0,0,1,.128-7.06c-.25.491-.491.981-.932,1.8a37.18,37.18,0,0,0-3.67,8.238,24.636,24.636,0,0,1-2.605,6.565,10.348,10.348,0,0,1-2.35,3.219,21.646,21.646,0,0,0-4.583,9.106c-1.178,4.583-1.256,5.014-1.84,5.932s-.741,1.364-1.423,1.55a10.078,10.078,0,0,1-2.664.25,6.691,6.691,0,0,1-2.291-.314c-.682-.25-1.055-.368-1.241-.123a.981.981,0,0,0,.437,1.364c.682.309.618.245.868.682A3.822,3.822,0,0,0,67,155.489a3.675,3.675,0,0,0,1.8.628c.559.059.491.059.8.491a3.15,3.15,0,0,0,1.241,1.423c.8.559,1.3.618,1.732.245a2.569,2.569,0,0,0,.746-2.1A3.428,3.428,0,0,1,73.749,154c.373-.559,1.236-2.453,2.046-4.21a13.976,13.976,0,0,1,2.659-4.273c1.359-1.487,2.6-2.291,3.469-4.46s.8-2.6,1.55-3.469a6.917,6.917,0,0,0,1.178-1.855,8.67,8.67,0,0,1,1.545-1.918c.682-.746,1.55-1.8,2.291-2.792a56.548,56.548,0,0,1-.868-8.1Zm40.011,29.541a5.732,5.732,0,0,1-2.291.245,7.757,7.757,0,0,1-2.664-.309c-.682-.186-.868-.618-1.428-1.546s-.677-1.3-1.855-5.946a21.454,21.454,0,0,0-4.524-9.165,9.787,9.787,0,0,1-2.35-3.223,25.289,25.289,0,0,1-2.6-6.624,36.307,36.307,0,0,0-3.6-8.3c-.432-.741-.677-1.3-.927-1.8a36.557,36.557,0,0,1,.064,7.06c-.186,2.851-.437,5.515-.868,8.238.741,1.055,1.609,2.1,2.227,2.851a9.063,9.063,0,0,1,1.55,1.918,6.756,6.756,0,0,0,1.178,1.859c.741.863.741,1.3,1.545,3.528s2.11,3.037,3.41,4.46a14.39,14.39,0,0,1,2.6,4.273c.8,1.8,1.673,3.714,2.041,4.273a3.975,3.975,0,0,1,.437,2.169,3.047,3.047,0,0,0,.741,2.1c.437.373.927.309,1.737-.25a3.341,3.341,0,0,0,1.236-1.359c.25-.437.186-.437.8-.491a3.857,3.857,0,0,0,1.8-.618,4.362,4.362,0,0,0,1.55-1.364c.245-.437.186-.373.864-.682a.981.981,0,0,0,.437-1.364c-.064-.25-.5-.128-1.114.059Z" transform="translate(6647.4 6612.437)" fill="#fff" stroke="#fff" stroke-miterlimit="10" stroke-width="1.5"/>
    <circle id="Ellipse_30" data-name="Ellipse 30" cx="56.172" cy="56.172" r="56.172" transform="translate(6687.953 6665.256)" fill="none" stroke="#142f4e" stroke-miterlimit="10" stroke-width="3"/>
  </g>
</svg>
